<?xml version="1.0" encoding="utf-8"?>
<!-- Generator: Adobe Illustrator 16.0.0, SVG Export Plug-In . SVG Version: 6.00 Build 0)  -->
<!DOCTYPE svg PUBLIC "-//W3C//DTD SVG 1.1//EN" "http://www.w3.org/Graphics/SVG/1.1/DTD/svg11.dtd">
<svg version="1.1" id="圖層_1" xmlns="http://www.w3.org/2000/svg" xmlns:xlink="http://www.w3.org/1999/xlink" x="0px" y="0px"
	 width="388.389px" height="420.444px" viewBox="0 0 388.389 420.444" enable-background="new 0 0 388.389 420.444"
	 xml:space="preserve">
<g>
	<path fill="#FFFFFF" d="M129.464,87.427c1.595-0.945,2.998-1.613,4.209-2.005c1.211-0.391,2.43-0.587,3.656-0.587
		c1.019,0,2.049,0.14,3.09,0.421c1.042,0.281,2.308,0.775,3.8,1.484c0.192,0.104,0.458,0.251,0.798,0.443
		c1.152,0.65,2.274,0.975,3.367,0.975c0.325,0,0.598,0.299,0.82,0.897s0.333,1.282,0.333,2.049c0,0.68-0.244,1.392-0.731,2.138
		c-0.487,0.746-1.019,1.119-1.595,1.119c-0.502,0-1.854-0.576-4.055-1.728c-1.123-0.591-2.023-1.056-2.703-1.396
		c-1.182-0.576-2.393-1.022-3.633-1.34c-1.241-0.317-2.408-0.476-3.501-0.476c-1.417,0-2.74,0.262-3.965,0.786
		c-1.226,0.525-2.349,1.304-3.368,2.337c-0.502,0.517-1.171,1.33-2.005,2.437c-0.834,1.108-1.466,1.662-1.895,1.662
		c-0.31,0-0.557-0.085-0.742-0.254c-0.185-0.17-0.277-0.388-0.277-0.654c0-0.827,2.415-5.214,7.245-13.16l0.333-0.531
		c0.443-0.739,1.026-1.662,1.75-2.77c0.96-1.477,1.44-2.378,1.44-2.703c0-0.162-0.092-0.461-0.276-0.897
		c-0.185-0.436-0.277-0.771-0.277-1.008c0-0.458,0.879-1.632,2.637-3.522c1.24-1.314,2.252-2.422,3.035-3.323
		c0.28-0.31,0.694-0.783,1.241-1.418c2.703-3.19,4.844-4.785,6.425-4.785c0.354,0,0.679,0.391,0.975,1.174
		c0.295,0.783,0.443,1.477,0.443,2.083c0,0.621-0.188,1.304-0.565,2.049c-0.377,0.746-0.935,1.547-1.673,2.404
		c-3.708,4.209-6.688,7.736-8.939,10.579C132.606,82.749,130.808,85.256,129.464,87.427z"/>
	<path fill="#FFFFFF" d="M159.018,92.234c0.34,0.591,0.801,1.049,1.385,1.374c0.583,0.325,1.229,0.487,1.938,0.487
		c0.842,0,1.702-0.258,2.581-0.775c0.878-0.517,1.377-0.775,1.496-0.775c0.266,0,0.483,0.078,0.653,0.233
		c0.17,0.155,0.255,0.351,0.255,0.587c0,0.68-0.783,1.433-2.349,2.26s-2.932,1.241-4.099,1.241c-0.502,0-1.407-0.115-2.714-0.343
		c-1.307-0.229-2.323-0.344-3.046-0.344c-0.886,0-1.614-0.446-2.183-1.34c-0.568-0.893-0.853-2.063-0.853-3.511
		c0-1.152,0.38-2.581,1.141-4.287s1.709-3.208,2.847-4.508c1.285-1.462,2.736-2.692,4.354-3.689
		c1.618-0.997,2.876-1.496,3.777-1.496c0.812,0,1.455,0.314,1.928,0.942s0.709,1.495,0.709,2.603c0,0.783-0.177,1.551-0.532,2.304
		c-0.03,0.074-0.052,0.125-0.066,0.155c-0.104,0.266-0.2,0.675-0.288,1.229c-0.088,0.554-0.192,0.957-0.31,1.208
		c-0.502,1.314-1.348,2.555-2.537,3.722C161.917,90.676,160.554,91.584,159.018,92.234z M158.442,90.196
		c1.551-1.019,2.813-2.271,3.788-3.755c0.975-1.484,1.462-2.832,1.462-4.043c0-0.354-0.059-0.627-0.177-0.819
		s-0.281-0.288-0.487-0.288c-1.049,0-2.061,0.883-3.035,2.647C159.018,85.703,158.501,87.789,158.442,90.196z"/>
	<path fill="#FFFFFF" d="M171.713,85.566h-0.399c-0.546,0-0.893-0.044-1.041-0.133c-0.147-0.089-0.222-0.258-0.222-0.51
		c0-0.222,0.307-0.624,0.919-1.208c0.613-0.583,1.451-1.251,2.515-2.005c1.64-3.309,2.729-5.406,3.268-6.292
		s0.971-1.396,1.296-1.529c0.103-0.029,0.292-0.062,0.565-0.1c0.273-0.037,0.491-0.092,0.653-0.166
		c0.177-0.074,0.406-0.185,0.687-0.333c0.546-0.295,0.96-0.443,1.241-0.443c0.295,0,0.539,0.081,0.731,0.244
		s0.347,0.421,0.465,0.775c0.029,0.148,0.059,0.303,0.088,0.465s0.044,0.273,0.044,0.332c0,0.207-0.414,1.03-1.241,2.47
		c-0.827,1.44-1.543,2.892-2.149,4.354c0.34,0.03,0.805,0.074,1.396,0.133c1.226,0.104,1.846,0.377,1.861,0.82
		c0,0.384-0.266,0.901-0.798,1.551c-0.207,0.251-0.347,0.436-0.421,0.554c-0.059,0.088-0.125,0.192-0.199,0.31
		c-0.34,0.532-0.872,0.797-1.595,0.797c-0.044,0-0.307-0.007-0.787-0.022s-0.941-0.022-1.385-0.022
		c-0.531,0.96-0.938,1.846-1.218,2.658c-0.281,0.812-0.421,1.529-0.421,2.149c0,0.665,0.163,1.163,0.487,1.495
		c0.325,0.333,0.797,0.499,1.418,0.499c0.605,0,1.326-0.159,2.16-0.476c0.834-0.318,1.355-0.477,1.562-0.477
		c0.295,0,0.535,0.092,0.72,0.277c0.185,0.185,0.277,0.425,0.277,0.72c0,0.635-0.868,1.492-2.604,2.57s-3.571,1.617-5.505,1.617
		c-1.211,0-2.249-0.513-3.113-1.54s-1.296-2.167-1.296-3.423c0-0.487,0.277-1.433,0.831-2.836
		C171.06,87.442,171.461,86.349,171.713,85.566z"/>
	<path fill="#FFFFFF" d="M196.903,64.098c0,0.37-0.281,1.012-0.842,1.928c-0.562,0.916-1.249,1.802-2.061,2.659
		c-0.945,0.96-1.82,1.735-2.625,2.326c-0.805,0.591-1.37,0.886-1.694,0.886c-0.222,0-0.396-0.059-0.521-0.177
		s-0.188-0.281-0.188-0.488c0-0.295,0.45-0.982,1.351-2.06s1.352-1.964,1.352-2.659c0-0.133-0.052-0.395-0.155-0.787
		c-0.104-0.391-0.155-0.72-0.155-0.986c0-0.473,0.495-1.13,1.484-1.972c0.103-0.088,0.177-0.155,0.222-0.199
		c0.266-0.222,0.576-0.502,0.93-0.842c0.546-0.531,0.982-0.797,1.307-0.797c0.517,0,0.912,0.273,1.186,0.82
		C196.766,62.296,196.903,63.079,196.903,64.098z"/>
	<path fill="#FFFFFF" d="M204.945,82.22c-0.148,0.177-0.255,0.354-0.321,0.532s-0.1,0.354-0.1,0.532c0,0.37,0.528,1.385,1.584,3.046
		c1.056,1.662,1.584,3.083,1.584,4.265c0,1.655-0.901,3.18-2.703,4.575c-1.802,1.396-3.848,2.094-6.137,2.094
		c-1.448,0-2.581-0.2-3.401-0.598c-0.82-0.399-1.229-0.953-1.229-1.662c0-0.753,0.447-1.599,1.34-2.537s1.628-1.407,2.204-1.407
		c0.605,0,1.215,0.536,1.828,1.606c0.613,1.071,1.163,1.606,1.65,1.606c0.236,0,0.417-0.081,0.543-0.244
		c0.125-0.162,0.188-0.398,0.188-0.709c0-1.742-0.551-3.378-1.651-4.907c-1.1-1.528-1.65-2.618-1.65-3.268
		c0-0.502,0.129-1,0.388-1.496c0.258-0.495,0.683-1.038,1.274-1.628c1.122-1.122,2.333-2.075,3.633-2.858
		c1.299-0.783,2.238-1.174,2.814-1.174c0.458,0,0.912,0.159,1.362,0.477c0.45,0.318,0.676,0.653,0.676,1.008
		c0,1.285-0.141,2.219-0.421,2.803c-0.281,0.583-0.746,0.875-1.396,0.875c-0.414,0-0.805-0.081-1.174-0.244
		C205.462,82.745,205.167,82.516,204.945,82.22z"/>
	<path fill="#FFFFFF" d="M234.478,90.196c-1.743,1.713-3.586,3.094-5.528,4.143c-1.942,1.049-3.534,1.573-4.774,1.573
		c-0.384,0-0.897-0.273-1.54-0.82c-0.643-0.546-0.964-1.063-0.964-1.551c0-1.255,0.329-2.618,0.986-4.087
		c0.658-1.47,1.584-2.891,2.781-4.265c0.753-0.842,1.617-1.668,2.592-2.481c0.975-0.812,2.09-1.618,3.346-2.415
		c1.181-0.738,2.186-1.292,3.013-1.662c0.827-0.369,1.507-0.554,2.038-0.554c0.281,0,0.753,0.066,1.418,0.199
		c0.665,0.133,1.204,0.199,1.618,0.199c0.088,0,0.254-0.007,0.499-0.022c0.244-0.015,0.439-0.022,0.587-0.022
		c0.576,0,1.045,0.1,1.407,0.299c0.362,0.2,0.543,0.447,0.543,0.742c0,0.059-0.229,0.938-0.687,2.637s-0.894,3.456-1.307,5.272
		c-0.059,0.237-0.14,0.591-0.244,1.063c-1.389,6.026-2.954,11.114-4.697,15.265c-0.088,0.222-0.214,0.517-0.376,0.886
		c-0.547,1.403-1.196,2.29-1.95,2.659c-0.724,0.369-1.415,0.665-2.072,0.886s-1.148,0.333-1.473,0.333
		c-0.783,0-1.832-0.177-3.146-0.532s-2.134-0.658-2.459-0.909c-0.443-0.34-0.979-1.115-1.606-2.326
		c-0.627-1.211-0.941-2.09-0.941-2.636c0-0.192,0.104-0.536,0.31-1.03c0.207-0.495,0.54-1.208,0.997-2.138
		c0.325-0.635,0.617-1.06,0.875-1.274c0.258-0.214,0.572-0.321,0.942-0.321c0.649,0,1.181,0.665,1.595,1.994
		c0.281,0.872,0.539,1.587,0.775,2.149c0.591,1.374,1.13,2.389,1.618,3.046c0.487,0.657,0.945,0.986,1.374,0.986
		c0.532,0,1.182-1.802,1.949-5.406C232.742,96.473,233.576,93.18,234.478,90.196z M228.518,91.415c0,0.104,0.03,0.174,0.089,0.21
		c0.059,0.037,0.155,0.056,0.288,0.056c0.473,0,1.354-0.55,2.647-1.651c1.292-1.1,2.478-2.411,3.556-3.932
		c0.783-1.078,1.425-2.112,1.928-3.102c0.502-0.99,0.753-1.647,0.753-1.972c0-0.103-0.044-0.195-0.133-0.277
		c-0.089-0.081-0.192-0.122-0.31-0.122c-0.591,0-1.562,0.447-2.914,1.34s-2.485,1.953-3.4,3.179
		c-0.724,0.96-1.322,2.049-1.795,3.268C228.754,89.631,228.518,90.632,228.518,91.415z"/>
	<path fill="#FFFFFF" d="M255.533,79.473c0.118-0.472,0.58-0.953,1.385-1.44c0.805-0.487,1.429-0.731,1.872-0.731
		c0.561,0,1.329,0.572,2.304,1.717c0.975,1.145,1.462,2.345,1.462,3.6c0,0.222-0.022,0.491-0.066,0.809
		c-0.044,0.318-0.111,0.698-0.199,1.141c0,1.506-0.24,2.873-0.72,4.099c-0.48,1.226-1.237,2.4-2.271,3.522
		c-1.3,1.433-2.781,2.585-4.442,3.457c-1.662,0.871-3.179,1.307-4.553,1.307c-1.285,0-2.33-0.396-3.135-1.186
		s-1.208-1.695-1.208-2.714c0-2.54,0.883-5.07,2.647-7.588S252.683,80.95,255.533,79.473z M255.977,82.752
		c-1.138,1.595-2.057,3.298-2.758,5.107c-0.702,1.81-1.052,3.238-1.052,4.287c0,0.502,0.1,0.894,0.299,1.174
		c0.199,0.281,0.477,0.421,0.831,0.421c0.738,0,1.687-0.616,2.847-1.85c1.159-1.233,2.086-2.721,2.78-4.464
		c-0.827-0.561-1.499-1.255-2.016-2.083S256.08,83.653,255.977,82.752z"/>
</g>
<g>
	<path fill="#FFFFFF" d="M129.247,177.152c-0.761,1.217-1.598,2.511-2.511,3.577l-2.74,3.12l-5.25-11.795
		c4.414-3.424,9.208-7.99,12.251-12.632c1.065-1.598,2.055-3.196,3.044-4.718l1.218,0.533
		C134.498,163.835,133.889,169.618,129.247,177.152z M130.997,151.127c-3.957,0-6.468-3.5-7.914-8.142
		c-0.38-1.293-2.207-2.739-3.12-3.729l0.533-0.761c4.489,0.837,8.218,0.913,11.338,2.892c1.446,0.913,3.5,3.805,3.653,5.783
		C135.715,149.301,133.965,151.127,130.997,151.127z M130.845,130.962c-2.663-0.609-5.25-3.5-6.544-7.229
		c-0.457-1.446-1.826-2.74-2.892-3.881l0.608-0.609c2.816,0.457,7.306,0.761,9.816,1.446c3.12,1.674,4.642,2.815,4.946,6.164
		C136.628,129.82,133.661,131.646,130.845,130.962z M159.533,177.38c-3.12,1.522-6.24,3.044-9.436,4.414
		c-4.946,2.207-10.653,3.196-15.98,4.186l-1.979-9.132c6.468-0.076,12.936-0.457,19.404-1.446c1.142-3.576,2.055-7.229,2.663-10.958
		h12.1c-2.968,4.109-5.327,6.849-9.132,10.197c3.12-0.609,6.164-1.37,9.284-2.283l0.38,0.761
		C164.555,174.793,162.044,176.086,159.533,177.38z M143.477,175.173c-3.576-0.38-3.652-4.261-4.87-7.458
		c-0.38-0.989-1.293-2.055-1.902-2.892l0.685-0.685c4.337,0.685,10.577,2.511,10.653,7.077
		C148.042,174.032,146.064,175.401,143.477,175.173z M156.717,128.375v4.87h9.436v5.099h-28.079v-5.099h7.99v-4.87h-8.599v-5.022
		h8.599v-5.403h10.653v5.403h11.034v5.022H156.717z M164.555,145.8v17.35h-9.664v-1.979h-7.381v1.979h-9.664v-21.688h9.664v2.131
		h7.153l2.815-2.815l9.893,2.283L164.555,145.8z M154.891,148.464h-7.381v7.762h7.381V148.464z M181.296,171.292
		c-1.522,3.12-4.337,5.327-7.305,7.001c-6.316,3.576-10.577,5.098-17.426,7.305l-0.533-0.761c5.479-3.881,11.49-7.838,14.686-14.001
		c2.436-4.566,3.729-8.523,4.566-13.621h11.338C185.329,162.161,183.503,166.727,181.296,171.292z M181.601,129.288
		c-3.044,4.718-5.783,6.925-10.273,9.969c-1.598,1.065-3.196,2.13-4.794,3.043l-0.989-0.304c0.761-1.142,1.446-2.283,2.131-3.424
		c3.5-5.707,5.25-14.078,5.555-20.622h11.871C184.416,121.374,183.503,126.472,181.601,129.288z M184.112,144.278
		c-3.044,6.925-10.881,10.349-17.35,13.088l-0.989-0.685c3.424-2.968,6.011-6.012,7.762-10.197c0.609-1.37,1.293-2.815,1.598-4.337
		l0.608-2.892h10.425C185.558,140.93,184.873,142.604,184.112,144.278z"/>
	<path fill="#FFFFFF" d="M213.102,153.029c0,14.687-0.38,21.002-9.436,32.874l-5.022-11.49c5.783-6.468,10.196-13.773,13.545-21.84
		L213.102,153.029z M200.394,136.212c2.968,1.065,6.012,1.674,8.903,2.815c2.359,0.989,5.631,3.272,5.631,5.631
		c0,3.576-0.989,6.24-4.794,6.24c-2.968,0-5.022-2.815-5.479-4.794c-0.457-2.131-2.054-5.936-3.424-7.534l-1.674-1.979
		L200.394,136.212z M201.535,118.025c4.413,1.598,15.219,4.033,15.219,9.664c0,3.044-1.521,4.794-4.489,5.099
		c-2.892,0.304-4.262-1.979-5.631-4.718c-0.761-1.522-1.217-3.196-2.13-4.642c-1.065-1.75-2.359-3.348-3.805-4.87L201.535,118.025z
		 M222.918,133.245v-3.044h-5.479v-4.87h5.631c0-2.587-0.076-5.174-0.152-7.762h11.338c-0.076,2.587-0.228,5.175-0.38,7.762h6.849
		v4.87h-7.153c-1.294,7.914-2.435,9.969-7.458,16.285h3.729l2.739-3.196l9.36,2.435l-2.816,2.587v33.558h-8.979v-5.022h-4.946v5.022
		h-8.599v-37.287l5.707-0.076C222.613,140.778,222.918,137.049,222.918,133.245z M230.147,171.749v-20.47h-5.022l0.076,20.47
		H230.147z M241.104,179.054c1.294-6.925,1.75-14.61,1.75-21.611v-38.428h8.827v2.435l3.729-0.076l2.892-3.12l9.664,2.435
		l-2.663,2.663v56.691c0,0.533-0.076,1.142-0.305,1.674c-1.065,3.12-3.652,3.272-6.62,3.653c-1.37,0.152-2.74,0.38-4.185,0.38
		c-1.142,0-1.142-0.152-1.142-1.293c0-3.957-1.75-4.337-5.251-4.87v-0.989c1.75,0.076,3.425,0.152,5.175,0.152
		c1.902,0,2.739-0.229,2.739-2.359v-17.882h-4.337c-0.533,8.066-1.446,15.752-6.772,22.296c-1.446,1.827-3.272,3.424-4.946,5.022
		l-0.761-0.533C239.963,183.392,240.724,181.261,241.104,179.054z M255.715,136.745V126.32h-4.033v10.425H255.715z M255.715,153.41
		v-11.795h-4.033v11.795H255.715z"/>
</g>
<g>
	<path fill="#FFFFFF" d="M144.766,201.265c0.06-0.683,0.089-1.366,0.089-2.049h5.048c-0.119,0.683-0.267,1.366-0.386,2.049h10.452
		v1.93h-10.986c-0.743,1.544-1.336,2.079-2.554,3.236h7.661l1.009-1.336l4.187,0.95l-1.158,1.188v15.352
		c0,0.505,0,1.218-0.208,1.663c-0.564,1.307-3.623,1.604-4.87,1.604c-0.238,0-0.683,0-0.891-0.119
		c-0.148-0.089-0.237-0.386-0.297-0.534c-0.059-0.297-0.148-0.564-0.297-0.832c-0.416-0.772-1.604-1.099-2.375-1.307l0.089-0.445
		c1.128,0.178,2.286,0.267,3.415,0.267c0.713,0,1.307,0,1.307-0.891v-13.718H139.54v17.282h-4.305v-20.311h4.305v1.188h4.811
		c0.208-1.099,0.297-2.138,0.386-3.236h-10.601v-1.93H144.766z M144.439,217.151v-2.465h-3.711v-1.841h6.325
		c0.802-1.218,1.336-2.435,1.633-3.86h4.424c-1.573,1.99-2.375,2.524-4.572,3.86h4.513v1.841h-4.454v2.465h4.543v1.841h-4.543v5.107
		h-4.157v-5.107h-4.038v-1.841H144.439z M141.41,208.54c1.099,0.237,2.168,0.713,3.296,0.92c0.683,0.119,1.426,0.713,1.426,1.574
		c0,0.98-0.535,1.574-1.574,1.574c-1.722,0-1.722-1.663-2.435-2.851c-0.178-0.297-0.653-0.712-0.891-0.92L141.41,208.54z"/>
	<path fill="#FFFFFF" d="M177.43,209.549h6.414l1.455-1.366l4.87,0.98l-1.604,1.425c-0.119,2.583-0.208,5.137-0.267,7.72
		c-0.03,0.95-0.03,1.93-0.06,2.88c-0.029,0.505-0.089,1.04-0.208,1.544c-0.327,1.336-1.604,2.168-2.88,2.465
		c-1.218,0.297-2.762,0.624-4.009,0.624c-1.752,0-0.416-1.574-1.96-2.375c-0.594-0.297-1.781-0.475-2.464-0.564l0.089-0.445
		c1.306,0.06,2.613,0.148,3.919,0.148c0.297,0,0.594,0,0.891-0.029c2.049-0.089,2.108-0.476,2.167-2.524
		c0.06-2.821,0.148-5.671,0.179-8.492h-6.682c-0.148,1.188-0.356,2.375-0.623,3.534c-0.297,1.247-0.95,2.494-1.604,3.593
		c-0.802,1.277-1.812,2.405-3.029,3.296c-1.96,1.455-4.068,2.732-6.266,3.712l-0.297-0.267c1.01-0.861,1.96-1.752,2.851-2.732
		c2.167-2.287,3.385-5.404,4.009-8.433c0.238-1.069,0.327-2.197,0.416-3.296c0.089-0.92,0.208-1.9,0.208-2.851l-0.03-2.168h-7.453
		v-2.049h25.804v2.049h-13.718L177.43,209.549z M175.44,198.889c1.396,0.089,4.365-0.03,5.375,1.01
		c0.416,0.445,0.832,1.039,0.891,1.989c0.089,1.01-1.218,1.722-1.93,1.722c-0.832,0-2.019-0.267-2.464-0.98
		c-0.179-0.267-0.356-0.891-0.416-1.188c-0.178-0.98-0.92-1.722-1.722-2.227L175.44,198.889z"/>
	<path fill="#FFFFFF" d="M216.567,200.552l1.069-1.514l4.572,1.01l-1.425,1.514v24.17h-4.068v-1.603h-15.173v1.603h-4.039v-26.486
		h4.039v1.306H216.567z M201.542,202.542v19.687h15.173v-4.722c-1.128,0.297-2.257,0.594-3.415,0.594
		c-0.713,0-2.346-0.208-2.702-0.921c-0.208-0.386-0.238-0.891-0.238-1.306v-13.333h-2.643v7.69c0,1.247-0.178,2.702-0.653,3.831
		c-0.831,1.93-2.999,3.682-4.662,4.87l-0.356-0.267c1.396-1.752,1.959-2.969,2.227-5.226c0.06-0.624,0.148-1.277,0.148-1.93v-8.967
		H201.542z M213.717,202.542l-0.03,11.966c0,0.327,0.03,0.683,0.446,0.683c0.623,0,1.217-0.327,1.841-0.327
		c0.356,0,0.445,0.119,0.742,0.327v-12.649H213.717z"/>
	<path fill="#FFFFFF" d="M236.463,220.12v-4.721h3.771v4.721h3.207v-3.623h3.771v5.938h-3.771v-0.653h-11.076l-0.98,1.277
		l-3.474-1.425l0.802-0.891v-4.187h3.801v3.563H236.463z M234.028,201.057v0.535h1.812c0.208-0.832,0.237-1.574,0.268-2.405h4.662
		c-0.624,1.277-1.069,1.574-2.227,2.405h7.78l1.336-1.366l4.187,1.099l-1.128,1.128v7.513h-4.276v-0.505h-12.412v1.069H253.3v1.663
		h-19.271v1.158h14.936l1.188-1.128l3.83,0.95l-1.009,1.009c-0.03,2.999-0.03,6.028-0.148,9.027c-0.03,0.891-0.178,1.633-1.04,2.079
		c-0.802,0.386-2.999,0.624-3.919,0.624c-0.742,0-0.861-0.119-0.92-0.831c-0.03-0.356-0.208-0.653-0.386-0.921
		c-0.356-0.564-2.792-0.712-3.385-0.742v-0.564c1.514,0.089,3.058,0.237,4.603,0.237c0.742,0,1.158-0.089,1.188-0.891
		c0.119-2.375,0.119-4.781,0.178-7.156h-15.114v0.445h-4.275v-14.431H234.028z M246.44,204.62v-1.366h-12.412v1.366H246.44z
		 M246.44,207.768v-1.455h-12.412v1.455H246.44z"/>
</g>
<g>
	<path fill="#FFFFFF" d="M105.806,233.608v1.292h24.586l1.96-1.959l6.102,1.425l-1.871,1.737v37.37h-5.969v-2.094h-24.809v2.138
		h-5.968v-39.908H105.806z M130.615,268.884v-31.49h-24.809v31.49H130.615z M121.083,261.357l0.268,0.134l0.401-0.668
		c-1.604-5.701-1.916-11.135-2.049-17.015H106.43v-2.494h13.139v-3.251h3.786v3.251h2.494c-0.891-0.535-0.936-0.668-1.158-1.648
		c-0.089-0.223-0.178-0.713-0.312-0.891l-0.579-0.757l0.223-0.223c1.425,0.223,3.385,0.356,4.276,1.648
		c0.134,0.223,0.223,0.445,0.223,0.668c0,0.401-0.668,0.935-0.936,1.203h1.96v2.494h-5.968c0,4.009,0.312,7.527,0.668,11.581
		c1.114-3.519,1.292-5.078,1.782-8.864h4.142c-0.802,5.211-1.826,8.686-4.766,13.14c0.267,0.579,1.203,2.494,1.915,2.494
		c0.445,0,2.049-4.276,2.227-4.632l0.535,0.045c-0.267,1.514-0.757,3.073-0.757,4.632c0,1.693,0.936,1.826,0.936,2.539
		c0,0.98-0.98,2.851-2.138,2.851c-1.514,0-4.41-3.652-5.167-4.766c-1.826,1.916-2.896,2.851-5.167,4.187l-0.445-0.356
		c1.425-1.425,2.494-2.761,3.608-4.454c-3.875,1.826-7.928,3.163-11.981,4.454l-2.94-3.519
		C111.062,262.827,116.139,262.292,121.083,261.357z M112.22,245.634v1.158h2.049l1.158-1.292l4.276,1.158l-1.024,1.292v12.026
		h-4.231v-1.514h-2.227v1.47h-4.32v-14.297H112.22z M114.447,256.012v-6.726h-2.227v6.726H114.447z"/>
	<path fill="#FFFFFF" d="M166.739,257.66l-0.268-0.802c-5.79,3.608-10.734,4.677-17.415,5.523l-0.089-0.312
		c4.677-2.004,11.536-5.568,14.921-9.398l-0.535-0.535c-4.276,2.316-9.175,2.984-13.941,3.563v-0.312
		c4.231-1.692,9.22-4.766,12.427-7.973h-6.28v-2.94h24.542v2.94h-10.245c-1.336,1.247-2.761,2.45-4.32,3.474
		c2.271,1.069,4.053,2.049,5.746,3.919c2.583-1.604,4.899-3.697,6.815-6.102l7.349,1.826c-3.118,2.539-5.612,3.741-9.487,4.811
		c0.936,2.36,2.049,3.474,3.831,5.167c2.717,2.583,4.587,3.741,8.24,4.766v0.445c-3.607,0.267-3.83,2.271-2.405,4.944l-0.267,0.312
		c-7.349-2.227-10.244-8.018-11.224-15.233c-0.668,0.133-1.336,0.223-2.004,0.312c0.757,2.762,0.891,5.39,0.891,8.24
		c0,2.004,0,4.098-0.624,6.013c-0.356,1.069-1.114,1.693-2.093,2.093c-1.693,0.757-3.786,1.158-5.612,1.158
		c-1.559,0-0.846-1.203-1.604-2.227c-0.891-1.158-3.385-1.425-4.721-1.648v-0.49c1.692,0.044,3.385,0.089,5.078,0.089
		c0.891,0,2.405,0.134,2.984-0.712c0.49-0.802,0.535-4.009,0.579-5.078c-6.77,3.741-10.511,4.766-18.351,5.657l-0.223-0.356
		C155.025,266.346,161.706,262.56,166.739,257.66z M155.381,237.973h11.536c-1.292-0.534-1.604-1.603-1.916-2.939
		c-0.223-0.98-0.712-1.336-1.425-2.004l0.134-0.401c2.628-0.445,3.385-0.267,5.211,0.134c1.559,0.579,2.895,2.093,2.895,3.519
		c0,0.757-0.49,1.292-1.069,1.692h8.819l1.692-1.959l6.993,1.425l-2.271,1.782c-0.267,0.579-0.624,1.158-0.979,1.648
		c-1.069,1.425-4.365,2.628-6.013,3.251l-0.312-0.134c0.179-1.069,0.579-2.093,0.668-3.163H155.96
		c-0.134,0.98-0.223,1.693-0.712,2.583c-0.49,0.98-1.47,1.737-2.539,1.737c-1.381,0-3.118-0.668-3.118-2.272
		c0-2.182,2.672-3.429,3.519-6.814l0.133-0.535h0.535C154.312,236.325,154.847,237.127,155.381,237.973z"/>
	<path fill="#FFFFFF" d="M212.306,238.73c-0.936,2.316-2.405,4.811-4.009,6.726c-2.672,3.207-7.26,6.191-10.913,8.151l-0.356-0.356
		c1.737-2.093,3.474-4.409,4.81-6.77c1.693-2.895,3.697-8.195,4.098-11.491l0.179-1.515l7.705,0.045
		C213.419,235.301,213.019,237.038,212.306,238.73z M201.839,266.747c0.847-0.268,2.094-1.916,2.583-2.583
		c3.118-4.053,5.389-9.933,6.414-14.921h8.24c-1.96,4.899-4.187,9.22-7.973,13.006c-1.692,1.737-3.652,3.34-5.523,4.899
		c2.049,0,4.098,0.044,6.146,0.044c4.855,0,9.754-0.223,14.609-0.445c-1.203-3.608-3.163-6.458-5.256-9.532l0.49-0.312
		c1.648,0.891,3.296,1.826,4.855,2.851c1.604,1.069,3.742,2.272,5.211,3.608c1.559,1.381,3.073,3.118,3.162,5.345
		c0.134,2.272-1.514,4.231-3.607,4.543c-1.96,0.312-3.029-0.535-3.697-2.316c-0.356-1.024-0.356-2.138-0.802-3.118
		c-5.834,2.004-11.447,3.251-17.593,3.964c-2.761,0.312-5.567,0.668-8.329,0.757l-0.356-5.523
		C200.904,266.969,201.394,266.88,201.839,266.747z M225.757,237.395c2.628,4.632,6.726,9.175,11.669,11.224l-0.178,0.579
		c-2.093,0.223-3.786,1.024-3.786,3.429c0,0.579,0.178,1.069,0.356,1.604l-0.668,0.223c-3.519-1.915-7.171-4.632-8.774-8.462
		c-1.692-4.098-2.895-8.106-3.029-12.605h2.583C224.332,234.9,225,236.103,225.757,237.395z"/>
	<path fill="#FFFFFF" d="M277.916,234.767l2.004-2.049l6.28,1.737l-2.093,1.559v37.369h-5.969v-1.915h-24.542v1.915h-6.013v-39.997
		h6.013v1.381H277.916z M260.59,257.526h-3.786v-9.442h5.078v0.98h8.195l1.604-1.425l5.345,1.069l-1.916,1.559v6.993h-0.98
		l3.652,1.158c-1.871,1.024-3.83,1.871-5.746,2.761c1.559,0.624,4.454,1.604,4.454,3.742c0,1.203-1.158,1.648-2.182,1.648
		c-3.074,0-4.276-3.608-7.038-5.211c-1.024-0.579-2.093-1.024-3.251-1.381l0.178-0.267c1.782,0.178,3.563,0.445,5.345,0.802
		c0.891-1.024,1.826-2.093,2.628-3.251h-1.96v-1.158h-8.329v0.713l6.191-0.044c-1.47,1.113-2.984,2.138-4.543,3.118v7.616h-4.632
		v-5.701c-1.737,0.624-3.563,1.069-5.3,1.648v5.345h24.542v-31.401h-24.542v25.165C256.002,261.09,258.585,259.62,260.59,257.526z
		 M263.307,244.565v-1.826h-6.948v-2.494h6.948v-1.916h5.256v1.916h7.706v2.494h-7.706v1.826h8.73v2.539h-23.206v-2.539H263.307z
		 M270.255,253.696v-2.316h-8.373v2.316H270.255z"/>
</g>
<g>
	<g>
		<path fill="#FFFFFF" d="M111.092,78.479c-0.479,0-0.963-0.124-1.406-0.385l-10.275-6.033c-1.324-0.777-1.768-2.484-0.991-3.81
			c0.78-1.326,2.485-1.769,3.811-0.99l10.273,6.033c1.327,0.778,1.77,2.484,0.993,3.811
			C112.977,77.987,112.047,78.479,111.092,78.479z"/>
	</g>
	<g>
		<path fill="#FFFFFF" d="M119.215,63.398c-0.775,0-1.549-0.323-2.1-0.954L98.723,41.332c-1.012-1.16-0.891-2.917,0.27-3.927
			c1.16-1.012,2.918-0.891,3.927,0.269l18.395,21.112c1.008,1.158,0.889,2.918-0.271,3.927
			C120.516,63.172,119.864,63.398,119.215,63.398z"/>
	</g>
	<g>
		<path fill="#FFFFFF" d="M107.151,85.902h-7.656c-1.537,0-2.783-1.246-2.783-2.783c0-1.538,1.246-2.783,2.783-2.783h7.656
			c1.539,0,2.785,1.245,2.785,2.783C109.936,84.656,108.69,85.902,107.151,85.902z"/>
	</g>
	<g>
		<path fill="#FFFFFF" d="M70.958,102.374c-1.33,0-2.508-0.957-2.74-2.312c-0.262-1.516,0.756-2.955,2.271-3.217
			c8.349-1.437,30.148-3.444,31.072-3.529c1.533-0.142,2.887,0.986,3.027,2.518c0.141,1.531-0.986,2.886-2.517,3.026
			c-0.225,0.021-22.504,2.075-30.639,3.473C71.272,102.36,71.114,102.374,70.958,102.374z"/>
	</g>
	<g>
		<path fill="#FFFFFF" d="M90.913,116.755c-0.713,0-1.426-0.271-1.969-0.815c-1.088-1.086-1.088-2.848,0-3.937
			c2.684-2.685,8.601-4.531,9.762-4.876c1.473-0.437,3.021,0.404,3.459,1.878s-0.404,3.023-1.877,3.463
			c-2.325,0.688-6.159,2.223-7.407,3.472C92.338,116.483,91.624,116.755,90.913,116.755z"/>
	</g>
	<g>
		<path fill="#FFFFFF" d="M271.169,63.398c-0.676,0-1.354-0.245-1.889-0.739c-1.129-1.04-1.201-2.804-0.156-3.933l19.486-21.112
			c1.042-1.13,2.804-1.199,3.934-0.156c1.13,1.042,1.2,2.803,0.158,3.934l-19.489,21.111
			C272.666,63.097,271.917,63.398,271.169,63.398z"/>
	</g>
	<g>
		<path fill="#FFFFFF" d="M279.292,78.479c-0.996,0-1.956-0.533-2.458-1.471c-0.725-1.356-0.213-3.043,1.143-3.769l9.976-5.336
			c1.356-0.726,3.042-0.215,3.768,1.142s0.214,3.043-1.142,3.768l-9.976,5.337C280.183,78.374,279.734,78.479,279.292,78.479z"/>
	</g>
	<g>
		<path fill="#FFFFFF" d="M289.265,85.668h-4.988c-1.537,0-2.784-1.246-2.784-2.783c0-1.538,1.247-2.784,2.784-2.784h4.988
			c1.537,0,2.783,1.246,2.783,2.784C292.048,84.422,290.802,85.668,289.265,85.668z"/>
	</g>
	<g>
		<path fill="#FFFFFF" d="M318.26,101.911c-0.497,0-1.001-0.135-1.456-0.415c-1.975-0.921-15.92-2.093-27.666-2.628
			c-1.536-0.07-2.725-1.371-2.654-2.908c0.069-1.534,1.371-2.724,2.907-2.652c9.973,0.453,27.174,1.504,30.332,3.448
			c1.31,0.804,1.717,2.519,0.911,3.829C320.109,101.438,319.196,101.911,318.26,101.911z"/>
	</g>
	<g>
		<path fill="#FFFFFF" d="M301.867,115.364c-0.511,0-1.028-0.141-1.492-0.435c-1.197-0.764-5.425-1.454-8.655-1.657
			c-1.533-0.098-2.699-1.419-2.604-2.954c0.096-1.532,1.416-2.702,2.952-2.604c1.358,0.087,8.292,0.605,11.298,2.521
			c1.296,0.824,1.679,2.545,0.852,3.841C303.688,114.911,302.787,115.364,301.867,115.364z"/>
	</g>
</g>
<polygon fill="#FFFFFF" points="51.01,270.264 60.907,295.008 38.019,314.187 68.331,320.991 73.282,291.295 106.534,297.637 
	109.317,282.637 "/>
<polygon fill="#FFFFFF" points="338.06,270.264 328.162,295.008 351.051,314.187 320.739,320.991 315.789,291.295 282.537,297.637 
	279.753,282.637 "/>
<g>
	<path fill="#FFFFFF" d="M262.466,328.191c-0.342,0.162-0.889,0.372-1.641,0.629c-0.752,0.258-1.237,0.481-1.456,0.668
		c-0.332,0.301-0.474,0.649-0.426,1.045c0.047,0.389,0.232,0.708,0.557,0.957c0.324,0.249,0.711,0.346,1.16,0.292
		c0.501-0.061,0.96-0.283,1.375-0.668c0.307-0.291,0.49-0.625,0.552-1c0.044-0.246,0.026-0.702-0.055-1.369L262.466,328.191z"/>
	<path fill="#FFFFFF" d="M171.446,327.944c-0.611-0.025-1.125,0.177-1.542,0.605c-0.417,0.429-0.637,1.025-0.662,1.789l4.183,0.171
		c0.013-0.811-0.17-1.436-0.552-1.874S172.017,327.968,171.446,327.944z"/>
	<path fill="#FFFFFF" d="M159.601,323.986c-0.348-0.088-1.052-0.165-2.113-0.229l-1.422-0.087l-0.254,4.139l1.612,0.099
		c1.161,0.071,1.941,0.042,2.342-0.086c0.401-0.128,0.722-0.349,0.964-0.66c0.242-0.312,0.376-0.683,0.403-1.114
		c0.033-0.53-0.097-0.978-0.387-1.342C160.455,324.342,160.073,324.102,159.601,323.986z"/>
	<path fill="#FFFFFF" d="M312.078,295.625c0,0-113.676,28.609-233.849,0l-10.672,44.698c0,0,133.165,31.55,254.263,0
		L312.078,295.625z M95.891,318.787l-2.933-0.353c-0.002-0.761-0.182-1.338-0.538-1.73c-0.356-0.392-0.944-0.656-1.764-0.791
		c-0.846-0.14-1.537-0.075-2.073,0.194c-0.345,0.172-0.548,0.445-0.61,0.818c-0.056,0.341,0.04,0.657,0.289,0.947
		c0.316,0.369,1.155,0.837,2.516,1.405s2.352,1.087,2.971,1.556s1.07,1.045,1.352,1.728c0.282,0.683,0.347,1.48,0.197,2.392
		c-0.136,0.826-0.494,1.562-1.071,2.208c-0.578,0.646-1.315,1.075-2.213,1.287c-0.897,0.212-1.972,0.215-3.224,0.009
		c-1.823-0.301-3.153-0.953-3.991-1.957c-0.838-1.004-1.219-2.328-1.143-3.972l2.878,0.191c0.014,0.979,0.244,1.734,0.692,2.266
		c0.448,0.532,1.114,0.871,2,1.017c0.938,0.154,1.677,0.073,2.218-0.246c0.541-0.318,0.855-0.743,0.942-1.274
		c0.057-0.341,0.004-0.647-0.156-0.92c-0.161-0.272-0.476-0.538-0.944-0.797c-0.322-0.174-1.064-0.512-2.228-1.014
		c-1.497-0.644-2.513-1.3-3.05-1.968c-0.754-0.939-1.037-1.979-0.849-3.121c0.121-0.734,0.442-1.387,0.964-1.958
		s1.202-0.958,2.041-1.164c0.838-0.205,1.812-0.216,2.92-0.034c1.81,0.298,3.106,0.92,3.891,1.864
		C95.757,316.316,96.063,317.455,95.891,318.787z M108.913,325.841c-0.227,1.585-0.926,2.827-2.097,3.724
		c-1.172,0.896-2.534,1.234-4.087,1.012c-0.96-0.137-1.846-0.485-2.655-1.043c-0.81-0.559-1.382-1.29-1.716-2.193
		c-0.334-0.903-0.416-1.958-0.244-3.161c0.132-0.921,0.486-1.78,1.062-2.577c0.577-0.797,1.314-1.363,2.211-1.698
		c0.897-0.335,1.859-0.43,2.885-0.283c1.585,0.227,2.811,0.927,3.678,2.101C108.816,322.896,109.138,324.269,108.913,325.841z
		 M120.769,332.681l-2.583-0.317l0.193-1.573c-0.452,0.514-1.009,0.894-1.672,1.141c-0.663,0.247-1.341,0.328-2.033,0.242
		c-0.706-0.086-1.32-0.319-1.843-0.698c-0.522-0.379-0.875-0.864-1.057-1.456c-0.182-0.591-0.212-1.382-0.091-2.371l0.816-6.649
		l2.78,0.341l-0.592,4.828c-0.182,1.478-0.241,2.389-0.18,2.735c0.061,0.346,0.215,0.632,0.462,0.86
		c0.246,0.228,0.577,0.367,0.993,0.418c0.475,0.058,0.916-0.02,1.324-0.234c0.408-0.214,0.705-0.506,0.891-0.875
		c0.186-0.369,0.371-1.305,0.556-2.809l0.544-4.433l2.78,0.341L120.769,332.681z M130.346,325.313l-1.903-0.204l-0.455,4.242
		c-0.092,0.859-0.128,1.361-0.106,1.507c0.021,0.146,0.091,0.272,0.21,0.378c0.119,0.106,0.271,0.169,0.456,0.189
		c0.258,0.027,0.641-0.022,1.148-0.148l0.006,2.187c-0.677,0.208-1.425,0.268-2.245,0.18c-0.502-0.054-0.946-0.187-1.331-0.398
		c-0.385-0.212-0.657-0.461-0.817-0.75c-0.16-0.288-0.251-0.664-0.275-1.127c-0.025-0.33,0.016-0.987,0.121-1.972l0.492-4.589
		l-1.278-0.137l0.238-2.22l1.279,0.137l0.224-2.092l2.969-1.326l-0.398,3.717l1.903,0.204L130.346,325.313z M142.52,328.618
		l-0.567,6.185l-2.79-0.256l0.511-5.569c0.102-1.105,0.113-1.812,0.034-2.119s-0.244-0.561-0.496-0.761
		c-0.252-0.2-0.58-0.318-0.983-0.355c-0.463-0.042-0.887,0.032-1.272,0.224c-0.385,0.192-0.682,0.507-0.893,0.944
		c-0.21,0.438-0.356,1.1-0.438,1.987l-0.484,5.281l-2.79-0.256l1.334-14.553l2.79,0.256l-0.491,5.351
		c0.997-0.97,2.12-1.397,3.371-1.283c0.642,0.059,1.21,0.231,1.705,0.517c0.495,0.285,0.855,0.625,1.083,1.02
		s0.369,0.821,0.423,1.28C142.623,326.969,142.606,327.671,142.52,328.618z M163.543,328.422c-0.362,0.59-0.805,1.044-1.327,1.362
		c-0.522,0.317-1.045,0.517-1.57,0.598c-0.711,0.096-1.734,0.104-3.067,0.021l-1.92-0.118l-0.337,5.502l-2.945-0.181l0.894-14.586
		l4.726,0.29c1.791,0.109,2.954,0.254,3.489,0.433c0.822,0.271,1.493,0.789,2.012,1.557c0.519,0.768,0.742,1.732,0.671,2.893
		C164.114,327.089,163.906,327.832,163.543,328.422z M176.135,332.336l-7.012-0.287c-0.014,0.831,0.185,1.486,0.598,1.965
		c0.413,0.479,0.941,0.732,1.585,0.758c0.438,0.018,0.812-0.086,1.12-0.313c0.309-0.227,0.55-0.603,0.725-1.128l2.77,0.583
		c-0.401,1.008-0.999,1.763-1.794,2.266c-0.796,0.503-1.774,0.73-2.937,0.683c-1.839-0.075-3.176-0.732-4.01-1.97
		c-0.658-0.992-0.957-2.221-0.896-3.688c0.072-1.753,0.586-3.107,1.543-4.062s2.136-1.404,3.537-1.347
		c1.574,0.064,2.794,0.635,3.661,1.711C175.893,328.584,176.263,330.193,176.135,332.336z M188.974,330.542l-0.137,6.578l-2.8-0.059
		l0.113-5.401c0.023-1.143-0.021-1.883-0.133-2.221s-0.301-0.603-0.567-0.794c-0.265-0.192-0.587-0.292-0.966-0.299
		c-0.485-0.01-0.923,0.114-1.313,0.371c-0.391,0.258-0.663,0.604-0.814,1.04c-0.152,0.436-0.24,1.245-0.265,2.427l-0.1,4.793
		l-2.801-0.058l0.221-10.584l2.601,0.054l-0.032,1.555c0.948-1.177,2.124-1.75,3.525-1.721c0.618,0.013,1.18,0.136,1.688,0.369
		c0.507,0.233,0.888,0.525,1.143,0.876s0.43,0.747,0.524,1.188C188.953,329.096,188.991,329.725,188.974,330.542z M202.003,338.865
		c-0.206,0.618-0.494,1.104-0.866,1.456c-0.372,0.353-0.869,0.628-1.49,0.829c-0.622,0.2-1.407,0.3-2.357,0.301
		c-1.794,0.001-3.067-0.305-3.819-0.919c-0.751-0.614-1.127-1.393-1.128-2.337c0-0.093,0.003-0.206,0.01-0.339l3.2,0.386
		c0.053,0.372,0.176,0.628,0.369,0.767c0.266,0.199,0.685,0.299,1.256,0.298c0.731,0,1.279-0.111,1.645-0.331
		c0.246-0.146,0.677-0.382,0.803-0.708c0.086-0.233,0.374-0.662,0.374-1.286v-1.545c-1,1.144-2.138,1.716-3.415,1.717
		c-1.422,0.001-2.671-0.6-3.503-1.802c-0.652-0.95-1.04-2.132-1.041-3.548c-0.001-1.774,0.394-3.13,1.247-4.068
		c0.853-0.938,2.058-1.407,3.328-1.408c1.309-0.001,2.384,0.573,3.384,1.722v-1.485l2.462-0.002l-0.072,9.5
		C202.391,337.312,202.209,338.247,202.003,338.865z M212.851,336.944l-0.131-5.59c-0.026-1.11-0.096-1.812-0.209-2.109
		c-0.113-0.296-0.306-0.529-0.58-0.699c-0.273-0.169-0.612-0.25-1.018-0.24c-0.465,0.011-0.878,0.133-1.238,0.368
		c-0.36,0.235-0.62,0.582-0.778,1.041s-0.228,1.134-0.207,2.024l0.125,5.302l-2.801,0.065l-0.342-14.609l2.8-0.066l0.125,5.372
		c0.879-1.078,1.946-1.631,3.202-1.66c0.644-0.015,1.229,0.091,1.752,0.318c0.524,0.227,0.921,0.523,1.192,0.889
		c0.271,0.366,0.46,0.774,0.567,1.223c0.106,0.45,0.171,1.149,0.193,2.1l0.146,6.208L212.851,336.944z M226.377,336.418
		l-0.075-1.583c-0.358,0.582-0.844,1.051-1.456,1.406c-0.612,0.354-1.266,0.548-1.963,0.582c-0.71,0.033-1.355-0.093-1.934-0.378
		c-0.579-0.286-1.008-0.705-1.287-1.257s-0.441-1.326-0.488-2.322l-0.315-6.691l2.798-0.132l0.229,4.859
		c0.07,1.487,0.165,2.396,0.283,2.726c0.119,0.331,0.319,0.587,0.6,0.77c0.281,0.183,0.631,0.265,1.049,0.245
		c0.478-0.022,0.9-0.174,1.266-0.454c0.366-0.28,0.609-0.617,0.73-1.012s0.146-1.349,0.075-2.863l-0.21-4.461l2.798-0.132
		l0.499,10.575L226.377,336.418z M250.742,334.623l-1.026-11.458l-1.863,11.716l-2.83,0.253l-3.905-11.2l1.026,11.458l-2.73,0.245
		l-1.303-14.555l4.398-0.394l3.53,9.692l1.723-10.163l4.408-0.395l1.303,14.556L250.742,334.623z M263.659,333.167
		c-0.095-0.176-0.217-0.439-0.366-0.789c-0.066-0.159-0.112-0.264-0.138-0.315c-0.419,0.52-0.886,0.927-1.399,1.223
		c-0.513,0.296-1.077,0.481-1.69,0.556c-1.082,0.13-1.97-0.06-2.665-0.572c-0.694-0.512-1.096-1.217-1.204-2.114
		c-0.072-0.594,0.006-1.141,0.234-1.64c0.228-0.499,0.582-0.903,1.063-1.212s1.193-0.614,2.134-0.915
		c1.271-0.401,2.144-0.737,2.619-1.009l-0.033-0.277c-0.064-0.534-0.243-0.899-0.534-1.095c-0.292-0.196-0.803-0.25-1.536-0.161
		c-0.495,0.06-0.869,0.204-1.123,0.432c-0.254,0.228-0.437,0.597-0.549,1.105l-2.579-0.151c0.161-1.05,0.559-1.861,1.192-2.433
		c0.634-0.572,1.633-0.94,3-1.105c1.24-0.149,2.182-0.114,2.824,0.106c0.642,0.221,1.114,0.542,1.416,0.964
		c0.302,0.422,0.526,1.237,0.672,2.444l0.362,3.25c0.111,0.924,0.238,1.6,0.38,2.027c0.142,0.428,0.365,0.878,0.67,1.35
		L263.659,333.167z M274.162,323.793c-0.511-0.235-0.966-0.324-1.368-0.267c-0.388,0.056-0.702,0.21-0.94,0.463
		c-0.239,0.252-0.396,0.669-0.47,1.25c-0.074,0.582,0.017,1.764,0.273,3.546l0.466,3.236l-2.772,0.399l-1.508-10.478l2.575-0.371
		l0.214,1.49c0.339-0.767,0.669-1.288,0.989-1.562c0.32-0.274,0.703-0.443,1.15-0.508c0.632-0.091,1.265-0.004,1.901,0.26
		L274.162,323.793z M275.947,316.666l2.765-0.447l0.414,2.559l-2.766,0.447L275.947,316.666z M278.28,331.092l-1.69-10.451
		l2.765-0.447l1.69,10.451L278.28,331.092z M291.516,328.784l-0.987-5.312c-0.208-1.124-0.402-1.839-0.582-2.147
		c-0.179-0.308-0.417-0.529-0.716-0.663c-0.298-0.133-0.634-0.166-1.006-0.097c-0.477,0.089-0.881,0.299-1.211,0.631
		c-0.33,0.332-0.525,0.726-0.586,1.184c-0.061,0.457,0.018,1.268,0.234,2.43l0.876,4.714l-2.754,0.512l-1.934-10.408l2.558-0.475
		l0.284,1.529c0.689-1.345,1.724-2.146,3.103-2.402c0.607-0.113,1.183-0.106,1.727,0.019c0.543,0.125,0.976,0.334,1.297,0.626
		c0.321,0.292,0.572,0.644,0.754,1.056c0.182,0.413,0.347,1.021,0.496,1.824l1.202,6.468L291.516,328.784z M304.888,325.425
		c-0.642,0.688-1.531,1.157-2.667,1.405c-1.798,0.394-3.258,0.097-4.378-0.889c-0.888-0.792-1.488-1.905-1.802-3.34
		c-0.375-1.714-0.221-3.154,0.463-4.321c0.683-1.167,1.71-1.899,3.08-2.199c1.539-0.337,2.864-0.094,3.976,0.727
		s1.878,2.285,2.297,4.39l-6.855,1.5c0.197,0.808,0.556,1.391,1.077,1.749c0.521,0.359,1.096,0.47,1.726,0.332
		c0.429-0.094,0.763-0.289,1.004-0.587c0.241-0.297,0.379-0.722,0.415-1.274l2.827-0.139
		C305.917,323.855,305.53,324.737,304.888,325.425z"/>
	<path fill="#FFFFFF" d="M197.161,328.472c-0.671,0-1.224,0.262-1.659,0.784s-0.652,1.318-0.651,2.388
		c0.001,1.124,0.219,1.945,0.655,2.467c0.436,0.521,0.973,0.782,1.61,0.781c0.685,0,1.262-0.269,1.734-0.804
		s0.707-1.328,0.706-2.378c-0.001-1.097-0.228-1.911-0.68-2.442C198.423,328.736,197.852,328.471,197.161,328.472z"/>
	<path fill="#FFFFFF" d="M103.96,321.882c-0.724-0.103-1.371,0.086-1.944,0.568c-0.572,0.482-0.933,1.243-1.081,2.283
		c-0.148,1.04-0.016,1.871,0.399,2.494s0.983,0.986,1.708,1.089c0.724,0.104,1.37-0.086,1.939-0.569
		c0.569-0.483,0.929-1.25,1.079-2.303c0.146-1.026,0.014-1.851-0.397-2.474S104.684,321.985,103.96,321.882z"/>
	<path fill="#FFFFFF" d="M301.764,318.446c-0.479-0.327-0.999-0.43-1.557-0.308c-0.598,0.131-1.043,0.457-1.337,0.977
		s-0.357,1.153-0.187,1.898l4.09-0.895C302.58,319.33,302.244,318.773,301.764,318.446z"/>
</g>
</svg>
