<svg id="圖層_1" data-name="圖層 1" xmlns="http://www.w3.org/2000/svg" viewBox="0 0 1921.38 1948.19"><defs><style>.cls-1{fill:#cfded5;}.cls-2{opacity:0.5;}.cls-3{fill:none;stroke:#fff;stroke-miterlimit:10;stroke-width:3px;}.cls-4{fill:#fff;}</style></defs><title>四島奇旅底圖-單一底紋</title><rect class="cls-1" x="1.38" y="1.67" width="1920" height="1946.52"/><g class="cls-2"><path class="cls-3" d="M22.46,662,77.8,591,162,532.45s32.42-34.58,2.07-21.68l-24.24,10.68s-14.08,8.07,14-23.05,34.42-38.93,34.42-38.93,76.65-97.07,82-113.9-.13-34.83-26.39-4.1c0,0-49.43,68.67-66.2,83.08,0,0-5.88,8.17,12.45-28.27S185,361.12,185,361.12s-21-14.26-65.83,118.09L85,530.77s-8.51,17.05-2.25-25.61c0,0,.89-39.9,18.46-81S196,273.19,196,273.19s28.3-39.31-9.09-22.37c0,0-18.17,10.09-42.89,54.35l.29-21.31S139.76,254.12,109.2,295s-26,94.64-26,94.64S70.71,360,56.05,370.92c0,0-41.47,21-33.5,76.83s20.09,31.83,8.19,102.7c0,0-10.53,31-30.74,78.24" transform="translate(1.38)"/><path class="cls-3" d="M419.15,1933.08l34.09-27.36,46.34-18.22s19.19-12.72,3.41-10l-12.65,2.33s-7.56,2.24,9.17-9.33S520.13,1856,520.13,1856s47.07-37.3,51.48-44.65,3.84-16.47-12-4.89c0,0-31,26.92-40.57,31.85,0,0-3.69,3.21,9.05-12s1.49-17.19,1.49-17.19-8.3-9.08-44.31,48.44l-21.88,20.54s-5.93,7.11,1.8-12.35A118.75,118.75,0,0,1,483,1829.52c12.91-17.47,61.66-60.73,61.66-60.73s17.76-15.41-1.8-11.59c0,0-9.71,2.74-26.34,20.89l2.52-10s1.18-14.56-17.83,1.34-22.87,41.81-22.87,41.81-2.58-15.42-10.74-11.88c0,0-21.94,5.3-24.42,32.56s5.94,17.29-7.61,49.44c0,0-8.44,13.48-23.28,33.54" transform="translate(1.38)"/><path class="cls-3" d="M1914.07,1028.54,1808.43,990,1786.61,889s-.26-12.8-31.49-18.19c0,0-15.07-4.48-10.49,18.16l-33-6.43s-25.25-.88-6.48,23.65c0,0,1.4,5,32.34,13.4,0,0,21.58-.18,17.67,16.52l8,38.29-53.3-11.81s-76.83-38-88.3-75.19-27.15-96.79-27.15-96.79-1.07-35.36-42.36-30.76c0,0-15.78-4.91,0,34.75l-18.46,4.7s-27.13-2.6-14.65,20.41,42.74,7.82,42.74,7.82l11.13,32.76s10.74,9.92-35,3.53-32.3,18.74-32.3,18.74,3.15,21.82,76.09,7.06c0,0-3,28.79,69.54,80.42,0,0-72.61-3.2-85.17,14.83a403.66,403.66,0,0,0-21.82,35.32s-5.57,4.69,16.74,14.4,31.32-14.56,31.32-14.56,8.19-17.92,49.54-11.43c0,0,12.1,3.83,33.71-6.33,0,0,17.22-.07,49.94,11.44l71.3,16.6s9,5.88-27.37,19.29,7,34.23,7,34.23,8.83,12.81,30-7.28,67-35.47,105.78-6.34" transform="translate(1.38)"/><path class="cls-3" d="M1907.79,86.63l-119.53,98.43-91.91,154.46s-57.29,58.32-39,1.9l15.27-45s12.26-26-39.49,24.34-64.84,61.72-64.84,61.72S1405,518.9,1375.36,527.48,1312.07,524,1363.42,477c0,0,116.3-87.43,139.61-117.91,0,0,13.85-10.41-49.23,21S1389.08,367,1389.08,367s-29.47-41.11,203.27-113.95l87.84-59.94s29.51-14.56-46.9-6.66c0,0-72.31-2-144,27.48s-258,165.78-258,165.78-66.57,50-42.17-19.36c0,0,15.22-33.56,91.41-76.34l-38.65-1.45S1187,271.19,1256.08,217s167.45-40.51,167.45-40.51-56-26.49-38.61-53.3c0,0,31.13-76.76,133.84-56.41s61.24,41.12,187.93,25.16c0,0,54.53-17.09,136.88-51.05" transform="translate(1.38)"/><path class="cls-4" d="M397,1131a30.68,30.68,0,0,0,0-5c-.8-10.6-6.76-34.94-44-41-48-7.75-60.41-62.76-60.41-62.76s1.11-31.09,7.6-19.11,35.59,69.36,64.92,67.35c0,0,14.62,3.54,1.91-15.08s-36.61-26-33.83-55.54c0,0-2.67-21.21,9.47-13.82,0,0,28.44,65.41,31.64,43.85,0,0-2.93-36.77-13.74-49.6,0,0-6.06-3.44,0-31.56,0,0,6.77-3.55-33.6-19.17,0,0-32.37-16-23.34-38.41,0,0,3.33-8.2,13.67,5.73s37.65,25.38,37.65,25.38-3.74-21.21-34.06-49.64c0,0-30.78-37.5-2.42-37.32,0,0,4.56-5,12.12,17.57,0,0,17.68,43,24,19.12s13.36-32.23,17.28-28.69,10.46,5.9-5.77,44.7c0,0-4,37.12,16.43,71.39,0,0-2.44-27.16,12.57-58.41,0,0,9.55-23,5-39.3s6.85-12.65,6.85-12.65,11.5-5.4,5.87,63.37c0,0-4.09,56.91-20.45,103.74,0,0-3.87,61.18,15.5,63.42l23.89-21.18s8,2.45-1.14-22.77-15.38-121.2,12.81-156.14c0,0,22.3-60,24.7-26.57,0,0,3.08,4.48-5.17,17.74S443,943.08,444,970.49s2.71,60.85,2.71,60.85,17.32,18,42.65-81c0,0,16-93.53,25.14-102.56,0,0,15.22-30.72,19.65-13.47,0,0,5.39,7.93-7.78,22.51,0,0-15.55,45.36,3,24.81s29.87-44.3,36.35-28.94-33.31,53.76-48.38,59.15c0,0-16,35.76,6.61,17.86s41.39-56.3,49-33.14S511.64,961,511.64,961s-13.44,23.5-11.71,29.48c0,0,18.31-11.62,23.53-3.69s-1.37,15.41-35.19,20.15c0,0-13.18,14.39,6.62,7.51s21.5,1.95,21.5,1.95,13.59,14.83-42.55,15.52c0,0-43.12,55.41-39.29,92.15" transform="translate(1.38)"/><path class="cls-3" d="M173,1941.18a30.68,30.68,0,0,0,0-5c-.8-10.6-6.76-34.94-44-41-48-7.75-60.41-62.76-60.41-62.76s1.11-31.09,7.6-19.11,35.59,69.36,64.92,67.35c0,0,14.62,3.54,1.91-15.08s-36.62-26-33.83-55.54c0,0-2.67-21.21,9.47-13.82,0,0,28.44,65.41,31.64,43.85,0,0-2.93-36.77-13.74-49.6,0,0-6.06-3.44,0-31.56,0,0,6.77-3.55-33.6-19.17,0,0-32.37-16-23.34-38.41,0,0,3.33-8.2,13.67,5.73s37.65,25.38,37.65,25.38-3.74-21.2-34.06-49.64c0,0-30.78-37.5-2.42-37.32,0,0,4.56-5,12.12,17.57,0,0,17.68,43,24,19.13s13.36-32.24,17.28-28.7,10.46,5.9-5.77,44.7c0,0-4,37.12,16.43,71.39,0,0-2.44-27.16,12.57-58.41,0,0,9.55-22.94,5-39.3s6.85-12.65,6.85-12.65,11.5-5.39,5.87,63.37c0,0-4.09,56.91-20.45,103.74,0,0-3.87,61.19,15.5,63.42l23.89-21.18s8,2.45-1.14-22.77-15.38-121.19,12.81-156.14c0,0,22.3-60,24.7-26.57,0,0,3.08,4.48-5.17,17.74S219,1753.23,220,1780.64s2.71,60.85,2.71,60.85,17.32,18,42.65-81c0,0,16-93.53,25.14-102.55,0,0,15.22-30.73,19.65-13.48,0,0,5.39,7.94-7.78,22.51,0,0-15.55,45.37,3,24.81s29.87-44.3,36.35-28.93-33.31,53.75-48.38,59.14c0,0-16,35.76,6.61,17.86s41.39-56.3,49-33.14-61.3,64.43-61.3,64.43-13.44,23.51-11.71,29.48c0,0,18.31-11.62,23.53-3.68s-1.37,15.4-35.19,20.14c0,0-13.18,14.4,6.62,7.51s21.5,2,21.5,2,13.59,14.83-42.55,15.52c0,0-43.12,55.41-39.29,92.15" transform="translate(1.38)"/><path class="cls-4" d="M735.39,0A36.67,36.67,0,0,0,735,5.88c.09,12.58,5.15,41.83,48.68,52C839.79,70.89,850,136.9,850,136.9s-3.84,36.64-10.53,22S803,74,768.22,74c0,0-17-5.37-3.49,17.66S805.89,125.33,800.2,160c0,0,1.43,25.28-12.31,15.57,0,0-28.3-79.6-33.82-54.39,0,0,.47,43.69,12.2,59.72,0,0,6.88,4.56-2.58,37.29,0,0-8.29,3.65,38.14,25.38,0,0,36.95,21.56,24.46,47.28,0,0-4.6,9.42-15.68-7.88s-42.43-33-42.43-33,2.7,25.37,36.22,61.42c0,0,33.32,46.82-.18,44.3,0,0-5.79,5.6-12.89-21.75,0,0-17.4-52.22-26.77-24.54s-18.4,37-22.75,32.5-11.88-7.82,10.45-52.35c0,0,7.76-43.52-13.62-85.69,0,0,.67,32.3-19.6,68,0,0-13.14,26.34-9.06,46s-9.13,14.39-9.13,14.39-14,5.44-1.79-75.35c0,0,9.45-66.92,32.58-120.93,0,0,9.54-72-13.16-76.18l-30,23.08s-9.22-3.55-.49,27,8.34,144.46-27.82,183.46c0,0-31.21,69.06-31.34,29.39,0,0-3.27-5.55,7.55-20.54s29.38-83.85,30.39-116.32,1.74-72.12,1.74-72.12-19-22.71-57,92.21c0,0-26.46,109.22-38,119.14,0,0-20.48,35.07-24.32,14.32,0,0-5.72-9.81,11-26,0,0,22.06-52.34-1.56-29.56s-38.89,49.92-45.3,31.24,43.73-60.81,62-66c0,0,21.85-40.95-6.36-21.64s-53.47,63.17-60.55,35.18,77.67-71.15,77.67-71.15,17.78-26.68,16.23-33.88c0,0-22.59,12.24-28.11,2.44s2.87-18.09,43.21-20.94c0,0,16.75-15.95-7.21-9.42s-25.24-4-25.24-4-14.86-18.63,51.53-14.89c0,0,55.45-62,53.9-105.7" transform="translate(1.38)"/><path class="cls-4" d="M1918.87,396.48c-1.33.23-13.85-.11-15.75.12l-90.9,10.94-23.31,97.9s-.83,13.06-27.42,10.14c0,0-12.92.53-8-21.5l-28.15-2.34s-21.32-5.94-4.31-26c0,0,1.42-4.78,27.9-5,0,0,18.18,6,15.69-12.18l8.57-37.18-45.5-2.3s-66.58,18.25-78,53.31-27.6,92.05-27.6,92.05-2.61,36-37.2,20.13c0,0-13.53.76,1.68-35.7L1571.25,529s-23-4.69-11.35-24.94,36.38,3.56,36.38,3.56l11-30.64s9.53-7.28-29.29-13.1-26.29-28-26.29-28,3.71-21.56,64.46,13.36c0,0-1.14-30.38,62.5-63.76,0,0-61.33-16.38-71-38.3S1591,305,1591,305s-4.46-6.32,14.81-10.26,25.68,23.45,25.68,23.45,6,20.63,41.19,25.16c0,0,10.38-.65,28.1,15.64,0,0,14.5,4.73,42.63,1.76l60.89,2.27s7.88-3.61-22.11-27.23,7.53-33.25,7.53-33.25,8.06-10.78,24.9,15.58,30.28,45.49,59.55,40.33c12.46-2.19,39.64-3.26,45.88-3" transform="translate(1.38)"/><path class="cls-3" d="M487,1399.58c-1,.18-10.31-.08-11.72.09l-67.67,8.15-17.35,72.88s-.62,9.72-20.41,7.55c0,0-9.62.39-5.93-16L343,1470.5s-15.87-4.42-3.21-19.39c0,0,1.06-3.55,20.77-3.72,0,0,13.53,4.49,11.68-9.07l6.38-27.68-33.87-1.71s-49.57,13.58-58.11,39.69-20.54,68.52-20.54,68.52-1.94,26.83-27.69,15c0,0-10.08.56,1.25-26.58l-11.41-7.32s-17.12-3.49-8.45-18.56,27.09,2.64,27.09,2.64l8.18-22.8s7.09-5.42-21.81-9.75-19.57-20.84-19.57-20.84,2.76-16.06,48,9.94c0,0-.84-22.62,46.53-47.47,0,0-45.65-12.19-52.87-28.51s-12.41-31.41-12.41-31.41-3.32-4.71,11-7.64S273,1341.29,273,1341.29s4.49,15.35,30.66,18.73c0,0,7.73-.49,20.92,11.64,0,0,10.8,3.53,31.74,1.31l45.33,1.69s5.86-2.68-16.47-20.27,5.61-24.75,5.61-24.75,6-8,18.54,11.6,22.54,33.86,44.33,30c9.28-1.63,29.51-2.42,34.16-2.21" transform="translate(1.38)"/><path class="cls-3" d="M1158.72,1511.16s6.81,51.81,51.41,91.41,203.79,147.15,203.79,147.15,20.31,11.21-17.53,17.85S1207,1713,1178.86,1601.3c0,0-18-35.76-59-50,0,0-.33-4.32,13.07-3.38s11.19,1.95,11.19,1.95,5.61,2.72,7.75-15.3S1155.05,1508,1158.72,1511.16Z" transform="translate(1.38)"/><path class="cls-3" d="M1211.57,1454.45s-1.26,18,11.7,36.8,61.67,74.75,61.67,74.75,6.39,6.31-7.47,3.65-63.14-42.34-65.17-82.83a49.32,49.32,0,0,0-17.31-24.09s.19-1.47,4.86.56,3.82,2.08,3.82,2.08,1.8,1.62,3.83-4.07S1210.49,1452.94,1211.57,1454.45Z" transform="translate(1.38)"/><path class="cls-3" d="M1313,1503.76a74.3,74.3,0,0,0,29.71,37.48c22.93,14.63,102.35,51.63,102.35,51.63s10,3.59-6.62,9.3-89.23-11-109.9-59.26c0,0-10.69-14.81-30.14-18.29,0,0-.46-1.93,5.64-2.46s5.18.07,5.18.07,2.72.82,2.39-7.45S1311.14,1502.6,1313,1503.76Z" transform="translate(1.38)"/><path class="cls-3" d="M1018.31,1356.71s73.15,101.84,106.28,104.34c0,0,18.92-70.51-99.48-115.65,0,0-48.44-30.93-46.44-23.08,0,0,10.07,11.84,9.64,21.09,0,0,.45,5.14-11,7.08S1018.31,1356.71,1018.31,1356.71Z" transform="translate(1.38)"/><path class="cls-3" d="M763,727.65s6.81,51.81,51.4,91.41,203.8,147.15,203.8,147.15,20.31,11.21-17.53,17.85S811.25,929.45,783.16,817.79c0,0-18-35.76-59-50,0,0-.34-4.32,13.07-3.37s11.19,1.94,11.19,1.94,5.61,2.72,7.75-15.3S759.35,724.49,763,727.65Z" transform="translate(1.38)"/><path class="cls-3" d="M815.87,670.94s-1.27,18,11.7,36.8,61.67,74.75,61.67,74.75,6.39,6.31-7.47,3.65-63.14-42.34-65.17-82.83a49.32,49.32,0,0,0-17.31-24.09s.19-1.47,4.86.56,3.82,2.08,3.82,2.08,1.8,1.62,3.83-4.06S814.79,669.43,815.87,670.94Z" transform="translate(1.38)"/><path class="cls-4" d="M917.32,720.25A74.23,74.23,0,0,0,947,757.73c22.93,14.63,102.35,51.63,102.35,51.63s9.95,3.6-6.62,9.3-89.24-11-109.9-59.26c0,0-10.69-14.81-30.15-18.29,0,0-.46-1.92,5.65-2.46s5.18.07,5.18.07,2.72.82,2.39-7.45S915.44,719.09,917.32,720.25Z" transform="translate(1.38)"/><path class="cls-4" d="M622.61,573.2S695.76,675,728.89,677.54c0,0,18.92-70.51-99.48-115.65,0,0-48.44-30.92-46.44-23.08,0,0,10.07,11.84,9.64,21.09,0,0,.45,5.14-11,7.08S622.61,573.2,622.61,573.2Z" transform="translate(1.38)"/><path class="cls-3" d="M1816.57,1347.82s3.52,154.8,18.88,175.16-27.74,11.48-27.74,11.48S1808.21,1352.73,1816.57,1347.82Z" transform="translate(1.38)"/><path class="cls-3" d="M1547.08,1579a.74.74,0,0,1-.76-.81c1.09-10.66,13.26-123.75,44-137.78,32.26-14.72-17,138.59-17,138.59Z" transform="translate(1.38)"/><path class="cls-3" d="M1769.79,1305.12l-23.86-4.73c-1.1,0-11.11-2.22-12.88,1.5-9.13,6.54-14.46-7.9-20.48-12.49l-12.83-9.78c-5.77-7.59-18.31,2.49-24.08-5.11-9.69-12.77-12.62-43.23-22.32-56a9.6,9.6,0,0,0-5.32,0c-12,3.81-10.9,34.94-10.9,34.94-19.14,3.78-7.43,39.91-7.43,39.91l-15.13,15.5a17.76,17.76,0,0,0-4.8,15.45c1.24,7-2.4,11.87-6.08,14.88a20.75,20.75,0,0,0-7.31,14.73l-7.24,103.39L1550,1579h257.45c2.94-89.24-18.7-157.45-15.76-246.69-9.5-1.15-12.38-26-21.88-27.16" transform="translate(1.38)"/><path class="cls-3" d="M1550,1579c-9.76-.07,2.1-13.6,7.4-23,13.23-23.51,42.77-64.91,76.27-70.27,0,0,60.15-7.67,9.64-213.61a13,13,0,0,1-.31-1.76c-1-8.94-7.91-80.25,24.19-39.83a13.67,13.67,0,0,1,1.88,3.17,46.39,46.39,0,0,1,3.56,19.48,13.72,13.72,0,0,0,7.85,13c8.79,4.15,22.31,13.19,35.08,32.41,3.47,5.23,10.88,20.09,16.79,18.08,11.79-4,31.1-20.13,48.16-6.62a13.37,13.37,0,0,0,6.83,2.77l18.15,2a13.93,13.93,0,0,1,12.29,14.86c-2.67,38.19-9.17,146.91.75,178a12.94,12.94,0,0,0,.77,1.93c2.14,4.37,11.33,19.51,39.37,28.66,0,0,13,4.12,12.78,26.94A13.86,13.86,0,0,1,1857.5,1579Z" transform="translate(1.38)"/><path class="cls-3" d="M1630.46,1295.3c1.67,29.07-11.38,110.59-7,153.34.43,4.23-4.33,5.87-5.73,2-5.08-14.16-9.36-37.78-5.2-74.79a.61.61,0,0,0,0-.14,428.39,428.39,0,0,0-3-47.49c-1.41-11.57,2.56-16.75,3.72-18.06l13.57-13.87C1628.88,1293.93,1630.21,1290.92,1630.46,1295.3Z" transform="translate(1.38)"/><path class="cls-3" d="M1818,1507.78s26.75,25.84,42.46,30.59c19,5.74,12.43,40.65,12.43,40.65H1547.56a1.56,1.56,0,0,1-1.57-1.15c-.44-2.19,1.3-5.5,3.35-6,33.49-8.8,107.81-27.69,112.22-52.74,0,0-2.56-9.25,35.92-16.42,0,0,5.33-4.66,0-12.77,0,0-1.71-7,18.83-15.05,0,0,5.46-43.06,35.19-55.74,0,0,8.45-6.82,0,55.74,0,0,17.37,15.64,15.42-.7s8-40.85,8-40.85,4.67-5.65,0-29.57c0,0-2.34-10.43,18.25-20.6,0,0,7.23-4.9,0-29,0,0,.72-18.61,24-24.4C1817.22,1329.73,1806.59,1483,1818,1507.78Z" transform="translate(1.38)"/></g></svg>