<?xml version="1.0" encoding="utf-8"?>
<!-- Generator: Adobe Illustrator 22.0.1, SVG Export Plug-In . SVG Version: 6.00 Build 0)  -->
<svg version="1.1" xmlns="http://www.w3.org/2000/svg" xmlns:xlink="http://www.w3.org/1999/xlink" x="0px" y="0px"
	 viewBox="0 0 1920 6023.2" style="enable-background:new 0 0 1920 6023.2;" xml:space="preserve">
<style type="text/css">
	.st0{fill:#CFDED5;}
	.st1{opacity:0.5;}
	.st2{fill:none;stroke:#FFFFFF;stroke-width:3;stroke-miterlimit:10;}
	.st3{fill:#FFFFFF;}
	.st4{opacity:0.64;}
	.st5{display:none;}
</style>
<g id="圖層_1">
	<rect y="1.7" class="st0" width="1920" height="6023.2"/>
	<g class="st1">
		<path class="st2" d="M22.5,661.9l55.3-71l84.2-58.5c0,0,32.4-34.6,2.1-21.7l-24.2,10.7c0,0-14.1,8.1,14-23
			c28-31.1,34.4-38.9,34.4-38.9s76.6-97.1,82-113.9c5.3-16.8-0.1-34.8-26.4-4.1c0,0-49.4,68.7-66.2,83.1c0,0-5.9,8.2,12.4-28.3
			c18.3-36.4-5.2-35.2-5.2-35.2s-21-14.3-65.8,118.1L85,530.8c0,0-8.5,17-2.2-25.6c0,0,0.9-39.9,18.5-81
			c17.6-41.1,94.8-151,94.8-151s28.3-39.3-9.1-22.4c0,0-18.2,10.1-42.9,54.3l0.3-21.3c0,0-4.5-29.7-35.1,11.1
			c-30.6,40.9-26,94.6-26,94.6S70.7,360,56,370.9c0,0-41.5,21-33.5,76.8c8,55.8,20.1,31.8,8.2,102.7c0,0-10.5,31-30.7,78.2"/>
		<path class="st2" d="M419.1,1933.1l34.1-27.4l46.3-18.2c0,0,19.2-12.7,3.4-10l-12.6,2.3c0,0-7.6,2.2,9.2-9.3
			c16.7-11.6,20.6-14.5,20.6-14.5s47.1-37.3,51.5-44.6c4.4-7.4,3.8-16.5-12-4.9c0,0-31,26.9-40.6,31.8c0,0-3.7,3.2,9-12
			c12.7-15.2,1.5-17.2,1.5-17.2s-8.3-9.1-44.3,48.4l-21.9,20.5c0,0-5.9,7.1,1.8-12.4c0,0,4.9-18.8,17.8-36.2
			c12.9-17.5,61.7-60.7,61.7-60.7s17.8-15.4-1.8-11.6c0,0-9.7,2.7-26.3,20.9l2.5-10c0,0,1.2-14.6-17.8,1.3
			c-19,15.9-22.9,41.8-22.9,41.8s-2.6-15.4-10.7-11.9c0,0-21.9,5.3-24.4,32.6c-2.5,27.3,5.9,17.3-7.6,49.4c0,0-8.4,13.5-23.3,33.5"
			/>
		<path class="st2" d="M1914.1,1028.5L1808.4,990L1786.6,889c0,0-0.3-12.8-31.5-18.2c0,0-15.1-4.5-10.5,18.2l-33-6.4
			c0,0-25.3-0.9-6.5,23.6c0,0,1.4,5,32.3,13.4c0,0,21.6-0.2,17.7,16.5l8,38.3l-53.3-11.8c0,0-76.8-38-88.3-75.2
			c-11.5-37.2-27.2-96.8-27.2-96.8s-1.1-35.4-42.4-30.8c0,0-15.8-4.9,0,34.7l-18.5,4.7c0,0-27.1-2.6-14.6,20.4
			c12.5,23,42.7,7.8,42.7,7.8l11.1,32.8c0,0,10.7,9.9-35,3.5c-45.7-6.4-32.3,18.7-32.3,18.7s3.1,21.8,76.1,7.1c0,0-3,28.8,69.5,80.4
			c0,0-72.6-3.2-85.2,14.8c-12.6,18-21.8,35.3-21.8,35.3s-5.6,4.7,16.7,14.4c22.3,9.7,31.3-14.6,31.3-14.6s8.2-17.9,49.5-11.4
			c0,0,12.1,3.8,33.7-6.3c0,0,17.2-0.1,49.9,11.4l71.3,16.6c0,0,9,5.9-27.4,19.3c-36.4,13.4,7,34.2,7,34.2s8.8,12.8,30-7.3
			c21.1-20.1,67-35.5,105.8-6.3"/>
		<path class="st2" d="M1907.8,86.6l-119.5,98.4l-91.9,154.5c0,0-57.3,58.3-39,1.9l15.3-45c0,0,12.3-26-39.5,24.3
			c-51.7,50.3-64.8,61.7-64.8,61.7s-163.3,136.4-192.9,145c-29.7,8.6-63.3-3.5-11.9-50.5c0,0,116.3-87.4,139.6-117.9
			c0,0,13.8-10.4-49.2,21c-63.1,31.4-64.7-13.1-64.7-13.1s-29.5-41.1,203.3-114l87.8-59.9c0,0,29.5-14.6-46.9-6.7
			c0,0-72.3-2-144,27.5c-71.7,29.5-258,165.8-258,165.8s-66.6,50-42.2-19.4c0,0,15.2-33.6,91.4-76.3l-38.7-1.4
			c0,0-54.8-11.4,14.3-65.6c69-54.2,167.5-40.5,167.5-40.5s-56-26.5-38.6-53.3c0,0,31.1-76.8,133.8-56.4
			c102.7,20.4,61.2,41.1,187.9,25.2c0,0,54.5-17.1,136.9-51"/>
		<path class="st3" d="M397,1131c0,0,0.2-1.9,0-5c-0.8-10.6-6.8-34.9-44-41c-48-7.7-60.4-62.8-60.4-62.8s1.1-31.1,7.6-19.1
			c6.5,12,35.6,69.4,64.9,67.3c0,0,14.6,3.5,1.9-15.1c-12.7-18.6-36.6-26-33.8-55.5c0,0-2.7-21.2,9.5-13.8c0,0,28.4,65.4,31.6,43.9
			c0,0-2.9-36.8-13.7-49.6c0,0-6.1-3.4,0-31.6c0,0,6.8-3.6-33.6-19.2c0,0-32.4-16-23.3-38.4c0,0,3.3-8.2,13.7,5.7
			c10.3,13.9,37.7,25.4,37.7,25.4s-3.7-21.2-34.1-49.6c0,0-30.8-37.5-2.4-37.3c0,0,4.6-5,12.1,17.6c0,0,17.7,43,24,19.1
			c6.3-23.9,13.4-32.2,17.3-28.7c3.9,3.5,10.5,5.9-5.8,44.7c0,0-4,37.1,16.4,71.4c0,0-2.4-27.2,12.6-58.4c0,0,9.5-22.9,5-39.3
			c-4.6-16.4,6.9-12.6,6.9-12.6s11.5-5.4,5.9,63.4c0,0-4.1,56.9-20.5,103.7c0,0-3.9,61.2,15.5,63.4l23.9-21.2c0,0,8,2.5-1.1-22.8
			c-9.1-25.2-15.4-121.2,12.8-156.1c0,0,22.3-60,24.7-26.6c0,0,3.1,4.5-5.2,17.7c-8.2,13.3-19.9,72.3-18.9,99.7
			c1,27.4,2.7,60.8,2.7,60.8s17.3,18,42.6-81c0,0,16-93.5,25.1-102.6c0,0,15.2-30.7,19.7-13.5c0,0,5.4,7.9-7.8,22.5
			c0,0-15.5,45.4,3,24.8c18.6-20.6,29.9-44.3,36.4-28.9c6.5,15.4-33.3,53.8-48.4,59.1c0,0-16,35.8,6.6,17.9
			c22.6-17.9,41.4-56.3,49-33.1c7.6,23.2-61.3,64.4-61.3,64.4s-13.4,23.5-11.7,29.5c0,0,18.3-11.6,23.5-3.7
			c5.2,7.9-1.4,15.4-35.2,20.1c0,0-13.2,14.4,6.6,7.5c19.8-6.9,21.5,1.9,21.5,1.9s13.6,14.8-42.6,15.5c0,0-43.1,55.4-39.3,92.2"/>
		<path class="st2" d="M173,1941.2c0,0,0.2-1.9,0-5c-0.8-10.6-6.8-34.9-44-41c-48-7.7-60.4-62.8-60.4-62.8s1.1-31.1,7.6-19.1
			c6.5,12,35.6,69.4,64.9,67.3c0,0,14.6,3.5,1.9-15.1c-12.7-18.6-36.6-26-33.8-55.5c0,0-2.7-21.2,9.5-13.8c0,0,28.4,65.4,31.6,43.9
			c0,0-2.9-36.8-13.7-49.6c0,0-6.1-3.4,0-31.6c0,0,6.8-3.6-33.6-19.2c0,0-32.4-16-23.3-38.4c0,0,3.3-8.2,13.7,5.7
			c10.3,13.9,37.7,25.4,37.7,25.4s-3.7-21.2-34.1-49.6c0,0-30.8-37.5-2.4-37.3c0,0,4.6-5,12.1,17.6c0,0,17.7,43,24,19.1
			c6.3-23.9,13.4-32.2,17.3-28.7c3.9,3.5,10.5,5.9-5.8,44.7c0,0-4,37.1,16.4,71.4c0,0-2.4-27.2,12.6-58.4c0,0,9.5-22.9,5-39.3
			c-4.6-16.4,6.9-12.6,6.9-12.6s11.5-5.4,5.9,63.4c0,0-4.1,56.9-20.5,103.7c0,0-3.9,61.2,15.5,63.4l23.9-21.2c0,0,8,2.5-1.1-22.8
			c-9.1-25.2-15.4-121.2,12.8-156.1c0,0,22.3-60,24.7-26.6c0,0,3.1,4.5-5.2,17.7c-8.2,13.3-19.9,72.3-18.9,99.7
			c1,27.4,2.7,60.8,2.7,60.8s17.3,18,42.6-81c0,0,16-93.5,25.1-102.6c0,0,15.2-30.7,19.7-13.5c0,0,5.4,7.9-7.8,22.5
			c0,0-15.5,45.4,3,24.8c18.6-20.6,29.9-44.3,36.4-28.9c6.5,15.4-33.3,53.8-48.4,59.1c0,0-16,35.8,6.6,17.9
			c22.6-17.9,41.4-56.3,49-33.1c7.6,23.2-61.3,64.4-61.3,64.4s-13.4,23.5-11.7,29.5c0,0,18.3-11.6,23.5-3.7
			c5.2,7.9-1.4,15.4-35.2,20.1c0,0-13.2,14.4,6.6,7.5c19.8-6.9,21.5,1.9,21.5,1.9s13.6,14.8-42.6,15.5c0,0-43.1,55.4-39.3,92.2"/>
		<path class="st3" d="M735.4,0c0,0-0.4,2.2-0.4,5.9c0.1,12.6,5.1,41.8,48.7,52c56.1,13.1,66.3,79.1,66.3,79.1s-3.8,36.6-10.5,22
			C832.8,144.2,803,74,768.2,74c0,0-17-5.4-3.5,17.7c13.5,23,41.2,33.7,35.5,68.4c0,0,1.4,25.3-12.3,15.6c0,0-28.3-79.6-33.8-54.4
			c0,0,0.5,43.7,12.2,59.7c0,0,6.9,4.6-2.6,37.3c0,0-8.3,3.6,38.1,25.4c0,0,36.9,21.6,24.5,47.3c0,0-4.6,9.4-15.7-7.9
			c-11.1-17.3-42.4-33-42.4-33s2.7,25.4,36.2,61.4c0,0,33.3,46.8-0.2,44.3c0,0-5.8,5.6-12.9-21.8c0,0-17.4-52.2-26.8-24.5
			c-9.4,27.7-18.4,37-22.7,32.5c-4.3-4.5-11.9-7.8,10.4-52.3c0,0,7.8-43.5-13.6-85.7c0,0,0.7,32.3-19.6,68c0,0-13.1,26.3-9.1,46
			c4.1,19.7-9.1,14.4-9.1,14.4s-14,5.4-1.8-75.3c0,0,9.4-66.9,32.6-120.9c0,0,9.5-72-13.2-76.2l-30,23.1c0,0-9.2-3.5-0.5,27
			c8.7,30.5,8.3,144.5-27.8,183.5c0,0-31.2,69.1-31.3,29.4c0,0-3.3-5.5,7.5-20.5c10.8-15,29.4-83.9,30.4-116.3
			c1-32.5,1.7-72.1,1.7-72.1s-19-22.7-57,92.2c0,0-26.5,109.2-38,119.1c0,0-20.5,35.1-24.3,14.3c0,0-5.7-9.8,11-26
			c0,0,22.1-52.3-1.6-29.6c-23.6,22.8-38.9,49.9-45.3,31.2c-6.4-18.7,43.7-60.8,62-66c0,0,21.8-41-6.4-21.6
			c-28.2,19.3-53.5,63.2-60.6,35.2c-7.1-28,77.7-71.2,77.7-71.2s17.8-26.7,16.2-33.9c0,0-22.6,12.2-28.1,2.4
			c-5.5-9.8,2.9-18.1,43.2-20.9c0,0,16.7-15.9-7.2-9.4c-24,6.5-25.2-4-25.2-4s-14.9-18.6,51.5-14.9c0,0,55.4-62,53.9-105.7"/>
		<path class="st3" d="M1918.9,396.5c-1.3,0.2-13.8-0.1-15.7,0.1l-90.9,10.9l-23.3,97.9c0,0-0.8,13.1-27.4,10.1c0,0-12.9,0.5-8-21.5
			l-28.2-2.3c0,0-21.3-5.9-4.3-26c0,0,1.4-4.8,27.9-5c0,0,18.2,6,15.7-12.2l8.6-37.2l-45.5-2.3c0,0-66.6,18.2-78.1,53.3
			c-11.5,35.1-27.6,92-27.6,92s-2.6,36-37.2,20.1c0,0-13.5,0.8,1.7-35.7l-15.3-9.8c0,0-23-4.7-11.3-24.9
			c11.6-20.3,36.4,3.6,36.4,3.6l11-30.6c0,0,9.5-7.3-29.3-13.1c-38.8-5.8-26.3-28-26.3-28s3.7-21.6,64.5,13.4
			c0,0-1.1-30.4,62.5-63.8c0,0-61.3-16.4-71-38.3c-9.7-21.9-16.7-42.2-16.7-42.2s-4.5-6.3,14.8-10.3c19.3-3.9,25.7,23.4,25.7,23.4
			s6,20.6,41.2,25.2c0,0,10.4-0.7,28.1,15.6c0,0,14.5,4.7,42.6,1.8l60.9,2.3c0,0,7.9-3.6-22.1-27.2c-30-23.6,7.5-33.3,7.5-33.3
			s8.1-10.8,24.9,15.6c16.8,26.4,30.3,45.5,59.6,40.3c12.5-2.2,39.6-3.3,45.9-3"/>
		<path class="st2" d="M487,1399.6c-1,0.2-10.3-0.1-11.7,0.1l-67.7,8.1l-17.4,72.9c0,0-0.6,9.7-20.4,7.6c0,0-9.6,0.4-5.9-16l-21-1.7
			c0,0-15.9-4.4-3.2-19.4c0,0,1.1-3.6,20.8-3.7c0,0,13.5,4.5,11.7-9.1l6.4-27.7l-33.9-1.7c0,0-49.6,13.6-58.1,39.7
			c-8.5,26.1-20.5,68.5-20.5,68.5s-1.9,26.8-27.7,15c0,0-10.1,0.6,1.3-26.6l-11.4-7.3c0,0-17.1-3.5-8.4-18.6
			c8.7-15.1,27.1,2.6,27.1,2.6l8.2-22.8c0,0,7.1-5.4-21.8-9.7c-28.9-4.3-19.6-20.8-19.6-20.8s2.8-16.1,48,9.9
			c0,0-0.8-22.6,46.5-47.5c0,0-45.7-12.2-52.9-28.5c-7.2-16.3-12.4-31.4-12.4-31.4s-3.3-4.7,11-7.6c14.3-2.9,19.1,17.5,19.1,17.5
			s4.5,15.4,30.7,18.7c0,0,7.7-0.5,20.9,11.6c0,0,10.8,3.5,31.7,1.3l45.3,1.7c0,0,5.9-2.7-16.5-20.3c-22.3-17.6,5.6-24.8,5.6-24.8
			s6-8,18.5,11.6c12.5,19.6,22.5,33.9,44.3,30c9.3-1.6,29.5-2.4,34.2-2.2"/>
		<path class="st2" d="M1158.7,1511.2c0,0,6.8,51.8,51.4,91.4c44.6,39.6,203.8,147.1,203.8,147.1s20.3,11.2-17.5,17.8
			c-37.8,6.6-189.4-54.6-217.5-166.3c0,0-18-35.8-59-50c0,0-0.3-4.3,13.1-3.4c13.4,0.9,11.2,1.9,11.2,1.9s5.6,2.7,7.8-15.3
			C1154,1516.5,1155.1,1508,1158.7,1511.2z"/>
		<path class="st2" d="M1211.6,1454.5c0,0-1.3,18,11.7,36.8c13,18.8,61.7,74.8,61.7,74.8s6.4,6.3-7.5,3.6
			c-13.9-2.7-63.1-42.3-65.2-82.8c0,0-3.8-14.1-17.3-24.1c0,0,0.2-1.5,4.9,0.6c4.7,2,3.8,2.1,3.8,2.1s1.8,1.6,3.8-4.1
			C1209.5,1455.6,1210.5,1452.9,1211.6,1454.5z"/>
		<path class="st2" d="M1313,1503.8c0,0,6.8,22.8,29.7,37.5c22.9,14.6,102.3,51.6,102.3,51.6s10,3.6-6.6,9.3s-89.2-11-109.9-59.3
			c0,0-10.7-14.8-30.1-18.3c0,0-0.5-1.9,5.6-2.5c6.1-0.5,5.2,0.1,5.2,0.1s2.7,0.8,2.4-7.5C1311.3,1506.5,1311.1,1502.6,1313,1503.8z
			"/>
		<path class="st2" d="M1018.3,1356.7c0,0,73.1,101.8,106.3,104.3c0,0,18.9-70.5-99.5-115.6c0,0-48.4-30.9-46.4-23.1
			c0,0,10.1,11.8,9.6,21.1c0,0,0.4,5.1-11,7.1C965.8,1352.4,1018.3,1356.7,1018.3,1356.7z"/>
		<path class="st2" d="M763,727.7c0,0,6.8,51.8,51.4,91.4c44.6,39.6,203.8,147.1,203.8,147.1s20.3,11.2-17.5,17.8
			c-37.8,6.6-189.4-54.6-217.5-166.3c0,0-18-35.8-59-50c0,0-0.3-4.3,13.1-3.4c13.4,0.9,11.2,1.9,11.2,1.9s5.6,2.7,7.8-15.3
			C758.3,733,759.4,724.5,763,727.7z"/>
		<path class="st2" d="M815.9,670.9c0,0-1.3,18,11.7,36.8c13,18.8,61.7,74.8,61.7,74.8s6.4,6.3-7.5,3.6
			c-13.9-2.7-63.1-42.3-65.2-82.8c0,0-3.8-14.1-17.3-24.1c0,0,0.2-1.5,4.9,0.6c4.7,2,3.8,2.1,3.8,2.1s1.8,1.6,3.8-4.1
			C813.8,672.1,814.8,669.4,815.9,670.9z"/>
		<path class="st3" d="M917.3,720.3c0,0,6.8,22.8,29.7,37.5c22.9,14.6,102.3,51.6,102.3,51.6s10,3.6-6.6,9.3s-89.2-11-109.9-59.3
			c0,0-10.7-14.8-30.1-18.3c0,0-0.5-1.9,5.6-2.5c6.1-0.5,5.2,0.1,5.2,0.1s2.7,0.8,2.4-7.5C915.6,723,915.4,719.1,917.3,720.3z"/>
		<path class="st3" d="M622.6,573.2c0,0,73.1,101.8,106.3,104.3c0,0,18.9-70.5-99.5-115.6c0,0-48.4-30.9-46.4-23.1
			c0,0,10.1,11.8,9.6,21.1c0,0,0.4,5.1-11,7.1C570.1,568.9,622.6,573.2,622.6,573.2z"/>
		<g>
			<g>
				<path class="st2" d="M1816.6,1347.8c0,0,3.5,154.8,18.9,175.2c15.4,20.4-27.7,11.5-27.7,11.5S1808.2,1352.7,1816.6,1347.8z"/>
				<g>
					<path class="st2" d="M1547.1,1579c-0.4,0-0.8-0.4-0.8-0.8c1.1-10.7,13.3-123.8,44-137.8c32.3-14.7-17,138.6-17,138.6H1547.1z"
						/>
					<path class="st2" d="M1769.8,1305.1l-23.9-4.7c-1.1,0-11.1-2.2-12.9,1.5c-9.1,6.5-14.5-7.9-20.5-12.5l-12.8-9.8
						c-5.8-7.6-18.3,2.5-24.1-5.1c-9.7-12.8-12.6-43.2-22.3-56c-2.2-0.6-4-0.4-5.3,0c-12,3.8-10.9,34.9-10.9,34.9
						c-19.1,3.8-7.4,39.9-7.4,39.9l-15.1,15.5c-4,4.1-5.8,9.8-4.8,15.4c1.2,7-2.4,11.9-6.1,14.9c-4.4,3.6-6.9,9.1-7.3,14.7
						l-7.2,103.4L1550,1579h257.5c2.9-89.2-18.7-157.4-15.8-246.7C1782.2,1331.1,1779.3,1306.3,1769.8,1305.1"/>
					<path class="st2" d="M1550,1579c-9.8-0.1,2.1-13.6,7.4-23c13.2-23.5,42.8-64.9,76.3-70.3c0,0,60.1-7.7,9.6-213.6
						c-0.1-0.6-0.2-1.2-0.3-1.8c-1-8.9-7.9-80.2,24.2-39.8c0.8,1,1.4,2,1.9,3.2c1.4,3.3,4,10.8,3.6,19.5c-0.3,5.5,2.9,10.7,7.8,13
						c8.8,4.2,22.3,13.2,35.1,32.4c3.5,5.2,10.9,20.1,16.8,18.1c11.8-4,31.1-20.1,48.2-6.6c2,1.6,4.4,2.5,6.8,2.8l18.1,2
						c7.4,0.8,12.8,7.4,12.3,14.9c-2.7,38.2-9.2,146.9,0.8,178.1c0.2,0.7,0.5,1.3,0.8,1.9c2.1,4.4,11.3,19.5,39.4,28.7
						c0,0,13,4.1,12.8,26.9c-0.1,7.6-6.4,13.8-13.9,13.7H1550z"/>
					<path class="st2" d="M1630.5,1295.3c1.7,29.1-11.4,110.6-7,153.3c0.4,4.2-4.3,5.9-5.7,2c-5.1-14.2-9.4-37.8-5.2-74.8
						c0-0.1,0-0.1,0-0.1c0.1-1.7-0.2-24.3-3-47.5c-1.4-11.6,2.6-16.8,3.7-18.1l13.6-13.9C1628.9,1293.9,1630.2,1290.9,1630.5,1295.3
						z"/>
					<path class="st2" d="M1818,1507.8c0,0,26.8,25.8,42.5,30.6c19,5.7,12.4,40.6,12.4,40.6h-325.4c-0.7,0-1.4-0.4-1.6-1.2
						c-0.4-2.2,1.3-5.5,3.4-6c33.5-8.8,107.8-27.7,112.2-52.7c0,0-2.6-9.2,35.9-16.4c0,0,5.3-4.7,0-12.8c0,0-1.7-7,18.8-15.1
						c0,0,5.5-43.1,35.2-55.7c0,0,8.4-6.8,0,55.7c0,0,17.4,15.6,15.4-0.7c-2-16.3,8.1-40.9,8.1-40.9s4.7-5.6,0-29.6
						c0,0-2.3-10.4,18.2-20.6c0,0,7.2-4.9,0-29c0,0,0.7-18.6,24-24.4C1817.2,1329.7,1806.6,1483,1818,1507.8z"/>
				</g>
			</g>
		</g>
	</g>
	<g class="st4">
		<path class="st2" d="M22.5,2456.8l55.3-71l84.2-58.5c0,0,32.4-34.6,2.1-21.7l-24.2,10.7c0,0-14.1,8.1,14-23
			c28-31.1,34.4-38.9,34.4-38.9s76.6-97.1,82-113.9c5.3-16.8-0.1-34.8-26.4-4.1c0,0-49.4,68.7-66.2,83.1c0,0-5.9,8.2,12.4-28.3
			c18.3-36.4-5.2-35.2-5.2-35.2s-21-14.3-65.8,118.1L85,2325.7c0,0-8.5,17-2.2-25.6c0,0,0.9-39.9,18.5-81
			c17.6-41.1,94.8-151,94.8-151s28.3-39.3-9.1-22.4c0,0-18.2,10.1-42.9,54.3l0.3-21.3c0,0-4.5-29.7-35.1,11.1
			c-30.6,40.9-26,94.6-26,94.6s-12.5-29.7-27.1-18.7c0,0-41.5,21-33.5,76.8c8,55.8,20.1,31.8,8.2,102.7c0,0-10.5,31-30.7,78.2"/>
		<path class="st2" d="M419.1,3728l34.1-27.4l46.3-18.2c0,0,19.2-12.7,3.4-10l-12.6,2.3c0,0-7.6,2.2,9.2-9.3
			c16.7-11.6,20.6-14.5,20.6-14.5s47.1-37.3,51.5-44.6c4.4-7.4,3.8-16.5-12-4.9c0,0-31,26.9-40.6,31.8c0,0-3.7,3.2,9-12
			c12.7-15.2,1.5-17.2,1.5-17.2s-8.3-9.1-44.3,48.4l-21.9,20.5c0,0-5.9,7.1,1.8-12.4c0,0,4.9-18.8,17.8-36.2
			c12.9-17.5,61.7-60.7,61.7-60.7s17.8-15.4-1.8-11.6c0,0-9.7,2.7-26.3,20.9l2.5-10c0,0,1.2-14.6-17.8,1.3
			c-19,15.9-22.9,41.8-22.9,41.8s-2.6-15.4-10.7-11.9c0,0-21.9,5.3-24.4,32.6c-2.5,27.3,5.9,17.3-7.6,49.4c0,0-8.4,13.5-23.3,33.5"
			/>
		<path class="st2" d="M1914.1,2823.4l-105.6-38.5l-21.8-101.1c0,0-0.3-12.8-31.5-18.2c0,0-15.1-4.5-10.5,18.2l-33-6.4
			c0,0-25.3-0.9-6.5,23.6c0,0,1.4,5,32.3,13.4c0,0,21.6-0.2,17.7,16.5l8,38.3l-53.3-11.8c0,0-76.8-38-88.3-75.2
			c-11.5-37.2-27.2-96.8-27.2-96.8s-1.1-35.4-42.4-30.8c0,0-15.8-4.9,0,34.7l-18.5,4.7c0,0-27.1-2.6-14.6,20.4
			c12.5,23,42.7,7.8,42.7,7.8l11.1,32.8c0,0,10.7,9.9-35,3.5c-45.7-6.4-32.3,18.7-32.3,18.7s3.1,21.8,76.1,7.1c0,0-3,28.8,69.5,80.4
			c0,0-72.6-3.2-85.2,14.8c-12.6,18-21.8,35.3-21.8,35.3s-5.6,4.7,16.7,14.4c22.3,9.7,31.3-14.6,31.3-14.6s8.2-17.9,49.5-11.4
			c0,0,12.1,3.8,33.7-6.3c0,0,17.2-0.1,49.9,11.4l71.3,16.6c0,0,9,5.9-27.4,19.3c-36.4,13.4,7,34.2,7,34.2s8.8,12.8,30-7.3
			c21.1-20.1,67-35.5,105.8-6.3"/>
		<path class="st2" d="M1907.8,1881.5l-119.5,98.4l-91.9,154.5c0,0-57.3,58.3-39,1.9l15.3-45c0,0,12.3-26-39.5,24.3
			c-51.7,50.3-64.8,61.7-64.8,61.7s-163.3,136.4-192.9,145c-29.7,8.6-63.3-3.5-11.9-50.5c0,0,116.3-87.4,139.6-117.9
			c0,0,13.8-10.4-49.2,21c-63.1,31.4-64.7-13.1-64.7-13.1s-29.5-41.1,203.3-114l87.8-59.9c0,0,29.5-14.6-46.9-6.7
			c0,0-72.3-2-144,27.5c-71.7,29.5-258,165.8-258,165.8s-66.6,50-42.2-19.4c0,0,15.2-33.6,91.4-76.3l-38.7-1.4
			c0,0-54.8-11.4,14.3-65.6c69-54.2,167.5-40.5,167.5-40.5s-56-26.5-38.6-53.3c0,0,31.1-76.8,133.8-56.4
			c102.7,20.4,61.2,41.1,187.9,25.2c0,0,54.5-17.1,136.9-51"/>
		<path class="st3" d="M397,2925.9c0,0,0.2-1.9,0-5c-0.8-10.6-6.8-34.9-44-41c-48-7.7-60.4-62.8-60.4-62.8s1.1-31.1,7.6-19.1
			c6.5,12,35.6,69.4,64.9,67.3c0,0,14.6,3.5,1.9-15.1c-12.7-18.6-36.6-26-33.8-55.5c0,0-2.7-21.2,9.5-13.8c0,0,28.4,65.4,31.6,43.9
			c0,0-2.9-36.8-13.7-49.6c0,0-6.1-3.4,0-31.6c0,0,6.8-3.6-33.6-19.2c0,0-32.4-16-23.3-38.4c0,0,3.3-8.2,13.7,5.7
			c10.3,13.9,37.7,25.4,37.7,25.4s-3.7-21.2-34.1-49.6c0,0-30.8-37.5-2.4-37.3c0,0,4.6-5,12.1,17.6c0,0,17.7,43,24,19.1
			c6.3-23.9,13.4-32.2,17.3-28.7c3.9,3.5,10.5,5.9-5.8,44.7c0,0-4,37.1,16.4,71.4c0,0-2.4-27.2,12.6-58.4c0,0,9.5-22.9,5-39.3
			c-4.6-16.4,6.9-12.6,6.9-12.6s11.5-5.4,5.9,63.4c0,0-4.1,56.9-20.5,103.7c0,0-3.9,61.2,15.5,63.4l23.9-21.2c0,0,8,2.5-1.1-22.8
			c-9.1-25.2-15.4-121.2,12.8-156.1c0,0,22.3-60,24.7-26.6c0,0,3.1,4.5-5.2,17.7c-8.2,13.3-19.9,72.3-18.9,99.7
			c1,27.4,2.7,60.8,2.7,60.8s17.3,18,42.6-81c0,0,16-93.5,25.1-102.6c0,0,15.2-30.7,19.7-13.5c0,0,5.4,7.9-7.8,22.5
			c0,0-15.5,45.4,3,24.8c18.6-20.6,29.9-44.3,36.4-28.9c6.5,15.4-33.3,53.8-48.4,59.1c0,0-16,35.8,6.6,17.9
			c22.6-17.9,41.4-56.3,49-33.1c7.6,23.2-61.3,64.4-61.3,64.4s-13.4,23.5-11.7,29.5c0,0,18.3-11.6,23.5-3.7
			c5.2,7.9-1.4,15.4-35.2,20.1c0,0-13.2,14.4,6.6,7.5c19.8-6.9,21.5,1.9,21.5,1.9s13.6,14.8-42.6,15.5c0,0-43.1,55.4-39.3,92.2"/>
		<path class="st2" d="M173,3736.1c0,0,0.2-1.9,0-5c-0.8-10.6-6.8-34.9-44-41c-48-7.7-60.4-62.8-60.4-62.8s1.1-31.1,7.6-19.1
			c6.5,12,35.6,69.4,64.9,67.3c0,0,14.6,3.5,1.9-15.1c-12.7-18.6-36.6-26-33.8-55.5c0,0-2.7-21.2,9.5-13.8c0,0,28.4,65.4,31.6,43.9
			c0,0-2.9-36.8-13.7-49.6c0,0-6.1-3.4,0-31.6c0,0,6.8-3.6-33.6-19.2c0,0-32.4-16-23.3-38.4c0,0,3.3-8.2,13.7,5.7
			c10.3,13.9,37.7,25.4,37.7,25.4s-3.7-21.2-34.1-49.6c0,0-30.8-37.5-2.4-37.3c0,0,4.6-5,12.1,17.6c0,0,17.7,43,24,19.1
			c6.3-23.9,13.4-32.2,17.3-28.7c3.9,3.5,10.5,5.9-5.8,44.7c0,0-4,37.1,16.4,71.4c0,0-2.4-27.2,12.6-58.4c0,0,9.5-22.9,5-39.3
			c-4.6-16.4,6.9-12.6,6.9-12.6s11.5-5.4,5.9,63.4c0,0-4.1,56.9-20.5,103.7c0,0-3.9,61.2,15.5,63.4l23.9-21.2c0,0,8,2.5-1.1-22.8
			c-9.1-25.2-15.4-121.2,12.8-156.1c0,0,22.3-60,24.7-26.6c0,0,3.1,4.5-5.2,17.7c-8.2,13.3-19.9,72.3-18.9,99.7
			c1,27.4,2.7,60.8,2.7,60.8s17.3,18,42.6-81c0,0,16-93.5,25.1-102.6c0,0,15.2-30.7,19.7-13.5c0,0,5.4,7.9-7.8,22.5
			c0,0-15.5,45.4,3,24.8c18.6-20.6,29.9-44.3,36.4-28.9c6.5,15.4-33.3,53.8-48.4,59.1c0,0-16,35.8,6.6,17.9
			c22.6-17.9,41.4-56.3,49-33.1c7.6,23.2-61.3,64.4-61.3,64.4s-13.4,23.5-11.7,29.5c0,0,18.3-11.6,23.5-3.7
			c5.2,7.9-1.4,15.4-35.2,20.1c0,0-13.2,14.4,6.6,7.5c19.8-6.9,21.5,1.9,21.5,1.9s13.6,14.8-42.6,15.5c0,0-43.1,55.4-39.3,92.2"/>
		<path class="st3" d="M735.4,1794.9c0,0-0.4,2.2-0.4,5.9c0.1,12.6,5.1,41.8,48.7,52c56.1,13.1,66.3,79.1,66.3,79.1
			s-3.8,36.6-10.5,22c-6.7-14.7-36.4-84.8-71.2-84.8c0,0-17-5.4-3.5,17.7c13.5,23,41.2,33.7,35.5,68.4c0,0,1.4,25.3-12.3,15.6
			c0,0-28.3-79.6-33.8-54.4c0,0,0.5,43.7,12.2,59.7c0,0,6.9,4.6-2.6,37.3c0,0-8.3,3.6,38.1,25.4c0,0,36.9,21.6,24.5,47.3
			c0,0-4.6,9.4-15.7-7.9c-11.1-17.3-42.4-33-42.4-33s2.7,25.4,36.2,61.4c0,0,33.3,46.8-0.2,44.3c0,0-5.8,5.6-12.9-21.8
			c0,0-17.4-52.2-26.8-24.5c-9.4,27.7-18.4,37-22.7,32.5c-4.3-4.5-11.9-7.8,10.4-52.3c0,0,7.8-43.5-13.6-85.7c0,0,0.7,32.3-19.6,68
			c0,0-13.1,26.3-9.1,46c4.1,19.7-9.1,14.4-9.1,14.4s-14,5.4-1.8-75.3c0,0,9.4-66.9,32.6-120.9c0,0,9.5-72-13.2-76.2l-30,23.1
			c0,0-9.2-3.5-0.5,27c8.7,30.5,8.3,144.5-27.8,183.5c0,0-31.2,69.1-31.3,29.4c0,0-3.3-5.5,7.5-20.5c10.8-15,29.4-83.9,30.4-116.3
			c1-32.5,1.7-72.1,1.7-72.1s-19-22.7-57,92.2c0,0-26.5,109.2-38,119.1c0,0-20.5,35.1-24.3,14.3c0,0-5.7-9.8,11-26
			c0,0,22.1-52.3-1.6-29.6c-23.6,22.8-38.9,49.9-45.3,31.2c-6.4-18.7,43.7-60.8,62-66c0,0,21.8-41-6.4-21.6
			c-28.2,19.3-53.5,63.2-60.6,35.2c-7.1-28,77.7-71.2,77.7-71.2s17.8-26.7,16.2-33.9c0,0-22.6,12.2-28.1,2.4
			c-5.5-9.8,2.9-18.1,43.2-20.9c0,0,16.7-15.9-7.2-9.4c-24,6.5-25.2-4-25.2-4s-14.9-18.6,51.5-14.9c0,0,55.4-62,53.9-105.7"/>
		<path class="st3" d="M1918.9,2191.4c-1.3,0.2-13.8-0.1-15.7,0.1l-90.9,10.9l-23.3,97.9c0,0-0.8,13.1-27.4,10.1
			c0,0-12.9,0.5-8-21.5l-28.2-2.3c0,0-21.3-5.9-4.3-26c0,0,1.4-4.8,27.9-5c0,0,18.2,6,15.7-12.2l8.6-37.2l-45.5-2.3
			c0,0-66.6,18.2-78.1,53.3c-11.5,35.1-27.6,92-27.6,92s-2.6,36-37.2,20.1c0,0-13.5,0.8,1.7-35.7l-15.3-9.8c0,0-23-4.7-11.3-24.9
			c11.6-20.3,36.4,3.6,36.4,3.6l11-30.6c0,0,9.5-7.3-29.3-13.1c-38.8-5.8-26.3-28-26.3-28s3.7-21.6,64.5,13.4
			c0,0-1.1-30.4,62.5-63.8c0,0-61.3-16.4-71-38.3c-9.7-21.9-16.7-42.2-16.7-42.2s-4.5-6.3,14.8-10.3c19.3-3.9,25.7,23.4,25.7,23.4
			s6,20.6,41.2,25.2c0,0,10.4-0.7,28.1,15.6c0,0,14.5,4.7,42.6,1.8l60.9,2.3c0,0,7.9-3.6-22.1-27.2c-30-23.6,7.5-33.3,7.5-33.3
			s8.1-10.8,24.9,15.6c16.8,26.4,30.3,45.5,59.6,40.3c12.5-2.2,39.6-3.3,45.9-3"/>
		<path class="st2" d="M487,3194.5c-1,0.2-10.3-0.1-11.7,0.1l-67.7,8.1l-17.4,72.9c0,0-0.6,9.7-20.4,7.6c0,0-9.6,0.4-5.9-16l-21-1.7
			c0,0-15.9-4.4-3.2-19.4c0,0,1.1-3.6,20.8-3.7c0,0,13.5,4.5,11.7-9.1l6.4-27.7l-33.9-1.7c0,0-49.6,13.6-58.1,39.7
			c-8.5,26.1-20.5,68.5-20.5,68.5s-1.9,26.8-27.7,15c0,0-10.1,0.6,1.3-26.6l-11.4-7.3c0,0-17.1-3.5-8.4-18.6
			c8.7-15.1,27.1,2.6,27.1,2.6l8.2-22.8c0,0,7.1-5.4-21.8-9.7c-28.9-4.3-19.6-20.8-19.6-20.8s2.8-16.1,48,9.9
			c0,0-0.8-22.6,46.5-47.5c0,0-45.7-12.2-52.9-28.5c-7.2-16.3-12.4-31.4-12.4-31.4s-3.3-4.7,11-7.6c14.3-2.9,19.1,17.5,19.1,17.5
			s4.5,15.4,30.7,18.7c0,0,7.7-0.5,20.9,11.6c0,0,10.8,3.5,31.7,1.3l45.3,1.7c0,0,5.9-2.7-16.5-20.3c-22.3-17.6,5.6-24.8,5.6-24.8
			s6-8,18.5,11.6c12.5,19.6,22.5,33.9,44.3,30c9.3-1.6,29.5-2.4,34.2-2.2"/>
		<path class="st2" d="M1158.7,3306c0,0,6.8,51.8,51.4,91.4c44.6,39.6,203.8,147.1,203.8,147.1s20.3,11.2-17.5,17.9
			c-37.8,6.6-189.4-54.6-217.5-166.3c0,0-18-35.8-59-50c0,0-0.3-4.3,13.1-3.4c13.4,0.9,11.2,1.9,11.2,1.9s5.6,2.7,7.8-15.3
			C1154,3311.4,1155.1,3302.9,1158.7,3306z"/>
		<path class="st2" d="M1211.6,3249.3c0,0-1.3,18,11.7,36.8c13,18.8,61.7,74.8,61.7,74.8s6.4,6.3-7.5,3.6
			c-13.9-2.7-63.1-42.3-65.2-82.8c0,0-3.8-14.1-17.3-24.1c0,0,0.2-1.5,4.9,0.6c4.7,2,3.8,2.1,3.8,2.1s1.8,1.6,3.8-4.1
			C1209.5,3250.5,1210.5,3247.8,1211.6,3249.3z"/>
		<path class="st2" d="M1313,3298.6c0,0,6.8,22.8,29.7,37.5c22.9,14.6,102.3,51.6,102.3,51.6s10,3.6-6.6,9.3
			c-16.6,5.7-89.2-11-109.9-59.3c0,0-10.7-14.8-30.1-18.3c0,0-0.5-1.9,5.6-2.5c6.1-0.5,5.2,0.1,5.2,0.1s2.7,0.8,2.4-7.4
			C1311.3,3301.4,1311.1,3297.5,1313,3298.6z"/>
		<path class="st2" d="M1018.3,3151.6c0,0,73.1,101.8,106.3,104.3c0,0,18.9-70.5-99.5-115.6c0,0-48.4-30.9-46.4-23.1
			c0,0,10.1,11.8,9.6,21.1c0,0,0.4,5.1-11,7.1C965.8,3147.3,1018.3,3151.6,1018.3,3151.6z"/>
		<path class="st2" d="M763,2522.5c0,0,6.8,51.8,51.4,91.4c44.6,39.6,203.8,147.1,203.8,147.1s20.3,11.2-17.5,17.9
			c-37.8,6.6-189.4-54.6-217.5-166.3c0,0-18-35.8-59-50c0,0-0.3-4.3,13.1-3.4c13.4,0.9,11.2,1.9,11.2,1.9s5.6,2.7,7.8-15.3
			C758.3,2527.9,759.4,2519.4,763,2522.5z"/>
		<path class="st2" d="M815.9,2465.8c0,0-1.3,18,11.7,36.8c13,18.8,61.7,74.8,61.7,74.8s6.4,6.3-7.5,3.6
			c-13.9-2.7-63.1-42.3-65.2-82.8c0,0-3.8-14.1-17.3-24.1c0,0,0.2-1.5,4.9,0.6c4.7,2,3.8,2.1,3.8,2.1s1.8,1.6,3.8-4.1
			C813.8,2467,814.8,2464.3,815.9,2465.8z"/>
		<path class="st3" d="M917.3,2515.1c0,0,6.8,22.8,29.7,37.5c22.9,14.6,102.3,51.6,102.3,51.6s10,3.6-6.6,9.3
			c-16.6,5.7-89.2-11-109.9-59.3c0,0-10.7-14.8-30.1-18.3c0,0-0.5-1.9,5.6-2.5c6.1-0.5,5.2,0.1,5.2,0.1s2.7,0.8,2.4-7.4
			C915.6,2517.9,915.4,2514,917.3,2515.1z"/>
		<path class="st3" d="M622.6,2368.1c0,0,73.1,101.8,106.3,104.3c0,0,18.9-70.5-99.5-115.6c0,0-48.4-30.9-46.4-23.1
			c0,0,10.1,11.8,9.6,21.1c0,0,0.4,5.1-11,7.1C570.1,2363.8,622.6,2368.1,622.6,2368.1z"/>
		<g>
			<g>
				<path class="st2" d="M1816.6,3142.7c0,0,3.5,154.8,18.9,175.2c15.4,20.4-27.7,11.5-27.7,11.5S1808.2,3147.6,1816.6,3142.7z"/>
				<g>
					<path class="st2" d="M1547.1,3373.8c-0.4,0-0.8-0.4-0.8-0.8c1.1-10.7,13.3-123.8,44-137.8c32.3-14.7-17,138.6-17,138.6H1547.1z
						"/>
					<path class="st2" d="M1769.8,3100l-23.9-4.7c-1.1,0-11.1-2.2-12.9,1.5c-9.1,6.5-14.5-7.9-20.5-12.5l-12.8-9.8
						c-5.8-7.6-18.3,2.5-24.1-5.1c-9.7-12.8-12.6-43.2-22.3-56c-2.2-0.6-4-0.4-5.3,0c-12,3.8-10.9,34.9-10.9,34.9
						c-19.1,3.8-7.4,39.9-7.4,39.9l-15.1,15.5c-4,4.1-5.8,9.8-4.8,15.4c1.2,7-2.4,11.9-6.1,14.9c-4.4,3.6-6.9,9.1-7.3,14.7
						l-7.2,103.4l-39.2,121.7h257.5c2.9-89.2-18.7-157.4-15.8-246.7C1782.2,3126,1779.3,3101.1,1769.8,3100"/>
					<path class="st2" d="M1550,3373.8c-9.8-0.1,2.1-13.6,7.4-23c13.2-23.5,42.8-64.9,76.3-70.3c0,0,60.1-7.7,9.6-213.6
						c-0.1-0.6-0.2-1.2-0.3-1.8c-1-8.9-7.9-80.2,24.2-39.8c0.8,1,1.4,2,1.9,3.2c1.4,3.3,4,10.8,3.6,19.5c-0.3,5.5,2.9,10.7,7.8,13
						c8.8,4.2,22.3,13.2,35.1,32.4c3.5,5.2,10.9,20.1,16.8,18.1c11.8-4,31.1-20.1,48.2-6.6c2,1.6,4.4,2.5,6.8,2.8l18.1,2
						c7.4,0.8,12.8,7.4,12.3,14.9c-2.7,38.2-9.2,146.9,0.8,178.1c0.2,0.7,0.5,1.3,0.8,1.9c2.1,4.4,11.3,19.5,39.4,28.7
						c0,0,13,4.1,12.8,26.9c-0.1,7.6-6.4,13.8-13.9,13.7H1550z"/>
					<path class="st2" d="M1630.5,3090.2c1.7,29.1-11.4,110.6-7,153.3c0.4,4.2-4.3,5.9-5.7,2c-5.1-14.2-9.4-37.8-5.2-74.8
						c0-0.1,0-0.1,0-0.1c0.1-1.7-0.2-24.3-3-47.5c-1.4-11.6,2.6-16.8,3.7-18.1l13.6-13.9C1628.9,3088.8,1630.2,3085.8,1630.5,3090.2
						z"/>
					<path class="st2" d="M1818,3302.7c0,0,26.8,25.8,42.5,30.6c19,5.7,12.4,40.6,12.4,40.6h-325.4c-0.7,0-1.4-0.4-1.6-1.2
						c-0.4-2.2,1.3-5.5,3.4-6c33.5-8.8,107.8-27.7,112.2-52.7c0,0-2.6-9.2,35.9-16.4c0,0,5.3-4.7,0-12.8c0,0-1.7-7,18.8-15.1
						c0,0,5.5-43.1,35.2-55.7c0,0,8.4-6.8,0,55.7c0,0,17.4,15.6,15.4-0.7c-2-16.3,8.1-40.9,8.1-40.9s4.7-5.6,0-29.6
						c0,0-2.3-10.4,18.2-20.6c0,0,7.2-4.9,0-29c0,0,0.7-18.6,24-24.4C1817.2,3124.6,1806.6,3277.8,1818,3302.7z"/>
				</g>
			</g>
		</g>
	</g>
	<g class="st4">
		<path class="st2" d="M22.5,4430.2l55.3-71l84.2-58.5c0,0,32.4-34.6,2.1-21.7l-24.2,10.7c0,0-14.1,8.1,14-23
			c28-31.1,34.4-38.9,34.4-38.9s76.6-97.1,82-113.9c5.3-16.8-0.1-34.8-26.4-4.1c0,0-49.4,68.7-66.2,83.1c0,0-5.9,8.2,12.4-28.3
			c18.3-36.4-5.2-35.2-5.2-35.2s-21-14.3-65.8,118.1L85,4299c0,0-8.5,17-2.2-25.6c0,0,0.9-39.9,18.5-81c17.6-41.1,94.8-151,94.8-151
			s28.3-39.3-9.1-22.4c0,0-18.2,10.1-42.9,54.3l0.3-21.3c0,0-4.5-29.7-35.1,11.1c-30.6,40.9-26,94.6-26,94.6s-12.5-29.7-27.1-18.7
			c0,0-41.5,21-33.5,76.8c8,55.8,20.1,31.8,8.2,102.7c0,0-10.5,31-30.7,78.2"/>
		<path class="st2" d="M419.1,5701.3l34.1-27.4l46.3-18.2c0,0,19.2-12.7,3.4-10l-12.6,2.3c0,0-7.6,2.2,9.2-9.3
			c16.7-11.6,20.6-14.5,20.6-14.5s47.1-37.3,51.5-44.6c4.4-7.4,3.8-16.5-12-4.9c0,0-31,26.9-40.6,31.8c0,0-3.7,3.2,9-12
			c12.7-15.2,1.5-17.2,1.5-17.2s-8.3-9.1-44.3,48.4l-21.9,20.5c0,0-5.9,7.1,1.8-12.4c0,0,4.9-18.8,17.8-36.2
			c12.9-17.5,61.7-60.7,61.7-60.7s17.8-15.4-1.8-11.6c0,0-9.7,2.7-26.3,20.9l2.5-10c0,0,1.2-14.6-17.8,1.3
			c-19,15.9-22.9,41.8-22.9,41.8s-2.6-15.4-10.7-11.9c0,0-21.9,5.3-24.4,32.6c-2.5,27.3,5.9,17.3-7.6,49.4c0,0-8.4,13.5-23.3,33.5"
			/>
		<path class="st2" d="M1914.1,4796.8l-105.6-38.5l-21.8-101.1c0,0-0.3-12.8-31.5-18.2c0,0-15.1-4.5-10.5,18.2l-33-6.4
			c0,0-25.3-0.9-6.5,23.6c0,0,1.4,5,32.3,13.4c0,0,21.6-0.2,17.7,16.5l8,38.3l-53.3-11.8c0,0-76.8-38-88.3-75.2
			c-11.5-37.2-27.2-96.8-27.2-96.8s-1.1-35.4-42.4-30.8c0,0-15.8-4.9,0,34.7l-18.5,4.7c0,0-27.1-2.6-14.6,20.4
			c12.5,23,42.7,7.8,42.7,7.8l11.1,32.8c0,0,10.7,9.9-35,3.5c-45.7-6.4-32.3,18.7-32.3,18.7s3.1,21.8,76.1,7.1c0,0-3,28.8,69.5,80.4
			c0,0-72.6-3.2-85.2,14.8c-12.6,18-21.8,35.3-21.8,35.3s-5.6,4.7,16.7,14.4c22.3,9.7,31.3-14.6,31.3-14.6s8.2-17.9,49.5-11.4
			c0,0,12.1,3.8,33.7-6.3c0,0,17.2-0.1,49.9,11.4l71.3,16.6c0,0,9,5.9-27.4,19.3c-36.4,13.4,7,34.2,7,34.2s8.8,12.8,30-7.3
			c21.1-20.1,67-35.5,105.8-6.3"/>
		<path class="st2" d="M1907.8,3854.9l-119.5,98.4l-91.9,154.5c0,0-57.3,58.3-39,1.9l15.3-45c0,0,12.3-26-39.5,24.3
			c-51.7,50.3-64.8,61.7-64.8,61.7s-163.3,136.4-192.9,145c-29.7,8.6-63.3-3.5-11.9-50.5c0,0,116.3-87.4,139.6-117.9
			c0,0,13.8-10.4-49.2,21c-63.1,31.4-64.7-13.1-64.7-13.1s-29.5-41.1,203.3-114l87.8-59.9c0,0,29.5-14.6-46.9-6.7
			c0,0-72.3-2-144,27.5c-71.7,29.5-258,165.8-258,165.8s-66.6,50-42.2-19.4c0,0,15.2-33.6,91.4-76.3l-38.7-1.4
			c0,0-54.8-11.4,14.3-65.6c69-54.2,167.5-40.5,167.5-40.5s-56-26.5-38.6-53.3c0,0,31.1-76.8,133.8-56.4
			c102.7,20.4,61.2,41.1,187.9,25.2c0,0,54.5-17.1,136.9-51"/>
		<path class="st3" d="M397,4899.3c0,0,0.2-1.9,0-5c-0.8-10.6-6.8-34.9-44-41c-48-7.7-60.4-62.8-60.4-62.8s1.1-31.1,7.6-19.1
			c6.5,12,35.6,69.4,64.9,67.3c0,0,14.6,3.5,1.9-15.1c-12.7-18.6-36.6-26-33.8-55.5c0,0-2.7-21.2,9.5-13.8c0,0,28.4,65.4,31.6,43.9
			c0,0-2.9-36.8-13.7-49.6c0,0-6.1-3.4,0-31.6c0,0,6.8-3.6-33.6-19.2c0,0-32.4-16-23.3-38.4c0,0,3.3-8.2,13.7,5.7
			c10.3,13.9,37.7,25.4,37.7,25.4s-3.7-21.2-34.1-49.6c0,0-30.8-37.5-2.4-37.3c0,0,4.6-5,12.1,17.6c0,0,17.7,43,24,19.1
			c6.3-23.9,13.4-32.2,17.3-28.7c3.9,3.5,10.5,5.9-5.8,44.7c0,0-4,37.1,16.4,71.4c0,0-2.4-27.2,12.6-58.4c0,0,9.5-22.9,5-39.3
			c-4.6-16.4,6.9-12.6,6.9-12.6s11.5-5.4,5.9,63.4c0,0-4.1,56.9-20.5,103.7c0,0-3.9,61.2,15.5,63.4l23.9-21.2c0,0,8,2.5-1.1-22.8
			c-9.1-25.2-15.4-121.2,12.8-156.1c0,0,22.3-60,24.7-26.6c0,0,3.1,4.5-5.2,17.7c-8.2,13.3-19.9,72.3-18.9,99.7
			c1,27.4,2.7,60.8,2.7,60.8s17.3,18,42.6-81c0,0,16-93.5,25.1-102.6c0,0,15.2-30.7,19.7-13.5c0,0,5.4,7.9-7.8,22.5
			c0,0-15.5,45.4,3,24.8c18.6-20.6,29.9-44.3,36.4-28.9c6.5,15.4-33.3,53.8-48.4,59.1c0,0-16,35.8,6.6,17.9
			c22.6-17.9,41.4-56.3,49-33.1c7.6,23.2-61.3,64.4-61.3,64.4s-13.4,23.5-11.7,29.5c0,0,18.3-11.6,23.5-3.7
			c5.2,7.9-1.4,15.4-35.2,20.1c0,0-13.2,14.4,6.6,7.5c19.8-6.9,21.5,1.9,21.5,1.9s13.6,14.8-42.6,15.5c0,0-43.1,55.4-39.3,92.2"/>
		<path class="st2" d="M173,5709.4c0,0,0.2-1.9,0-5c-0.8-10.6-6.8-34.9-44-41c-48-7.7-60.4-62.8-60.4-62.8s1.1-31.1,7.6-19.1
			c6.5,12,35.6,69.4,64.9,67.3c0,0,14.6,3.5,1.9-15.1c-12.7-18.6-36.6-26-33.8-55.5c0,0-2.7-21.2,9.5-13.8c0,0,28.4,65.4,31.6,43.9
			c0,0-2.9-36.8-13.7-49.6c0,0-6.1-3.4,0-31.6c0,0,6.8-3.6-33.6-19.2c0,0-32.4-16-23.3-38.4c0,0,3.3-8.2,13.7,5.7
			c10.3,13.9,37.7,25.4,37.7,25.4s-3.7-21.2-34.1-49.6c0,0-30.8-37.5-2.4-37.3c0,0,4.6-5,12.1,17.6c0,0,17.7,43,24,19.1
			c6.3-23.9,13.4-32.2,17.3-28.7c3.9,3.5,10.5,5.9-5.8,44.7c0,0-4,37.1,16.4,71.4c0,0-2.4-27.2,12.6-58.4c0,0,9.5-22.9,5-39.3
			c-4.6-16.4,6.9-12.6,6.9-12.6s11.5-5.4,5.9,63.4c0,0-4.1,56.9-20.5,103.7c0,0-3.9,61.2,15.5,63.4l23.9-21.2c0,0,8,2.5-1.1-22.8
			c-9.1-25.2-15.4-121.2,12.8-156.1c0,0,22.3-60,24.7-26.6c0,0,3.1,4.5-5.2,17.7c-8.2,13.3-19.9,72.3-18.9,99.7
			c1,27.4,2.7,60.8,2.7,60.8s17.3,18,42.6-81c0,0,16-93.5,25.1-102.6c0,0,15.2-30.7,19.7-13.5c0,0,5.4,7.9-7.8,22.5
			c0,0-15.5,45.4,3,24.8c18.6-20.6,29.9-44.3,36.4-28.9c6.5,15.4-33.3,53.8-48.4,59.1c0,0-16,35.8,6.6,17.9
			c22.6-17.9,41.4-56.3,49-33.1c7.6,23.2-61.3,64.4-61.3,64.4s-13.4,23.5-11.7,29.5c0,0,18.3-11.6,23.5-3.7
			c5.2,7.9-1.4,15.4-35.2,20.1c0,0-13.2,14.4,6.6,7.5c19.8-6.9,21.5,1.9,21.5,1.9s13.6,14.8-42.6,15.5c0,0-43.1,55.4-39.3,92.2"/>
		<path class="st3" d="M735.4,3768.2c0,0-0.4,2.2-0.4,5.9c0.1,12.6,5.1,41.8,48.7,52c56.1,13.1,66.3,79.1,66.3,79.1
			s-3.8,36.6-10.5,22c-6.7-14.7-36.4-84.8-71.2-84.8c0,0-17-5.4-3.5,17.7c13.5,23,41.2,33.7,35.5,68.4c0,0,1.4,25.3-12.3,15.6
			c0,0-28.3-79.6-33.8-54.4c0,0,0.5,43.7,12.2,59.7c0,0,6.9,4.6-2.6,37.3c0,0-8.3,3.6,38.1,25.4c0,0,36.9,21.6,24.5,47.3
			c0,0-4.6,9.4-15.7-7.9c-11.1-17.3-42.4-33-42.4-33s2.7,25.4,36.2,61.4c0,0,33.3,46.8-0.2,44.3c0,0-5.8,5.6-12.9-21.8
			c0,0-17.4-52.2-26.8-24.5c-9.4,27.7-18.4,37-22.7,32.5c-4.3-4.5-11.9-7.8,10.4-52.3c0,0,7.8-43.5-13.6-85.7c0,0,0.7,32.3-19.6,68
			c0,0-13.1,26.3-9.1,46c4.1,19.7-9.1,14.4-9.1,14.4s-14,5.4-1.8-75.3c0,0,9.4-66.9,32.6-120.9c0,0,9.5-72-13.2-76.2l-30,23.1
			c0,0-9.2-3.5-0.5,27c8.7,30.5,8.3,144.5-27.8,183.5c0,0-31.2,69.1-31.3,29.4c0,0-3.3-5.5,7.5-20.5c10.8-15,29.4-83.9,30.4-116.3
			c1-32.5,1.7-72.1,1.7-72.1s-19-22.7-57,92.2c0,0-26.5,109.2-38,119.1c0,0-20.5,35.1-24.3,14.3c0,0-5.7-9.8,11-26
			c0,0,22.1-52.3-1.6-29.6c-23.6,22.8-38.9,49.9-45.3,31.2c-6.4-18.7,43.7-60.8,62-66c0,0,21.8-41-6.4-21.6
			c-28.2,19.3-53.5,63.2-60.6,35.2c-7.1-28,77.7-71.2,77.7-71.2s17.8-26.7,16.2-33.9c0,0-22.6,12.2-28.1,2.4
			c-5.5-9.8,2.9-18.1,43.2-20.9c0,0,16.7-15.9-7.2-9.4c-24,6.5-25.2-4-25.2-4s-14.9-18.6,51.5-14.9c0,0,55.4-62,53.9-105.7"/>
		<path class="st3" d="M1918.9,4164.7c-1.3,0.2-13.8-0.1-15.7,0.1l-90.9,10.9l-23.3,97.9c0,0-0.8,13.1-27.4,10.1
			c0,0-12.9,0.5-8-21.5l-28.2-2.3c0,0-21.3-5.9-4.3-26c0,0,1.4-4.8,27.9-5c0,0,18.2,6,15.7-12.2l8.6-37.2l-45.5-2.3
			c0,0-66.6,18.2-78.1,53.3c-11.5,35.1-27.6,92-27.6,92s-2.6,36-37.2,20.1c0,0-13.5,0.8,1.7-35.7l-15.3-9.8c0,0-23-4.7-11.3-24.9
			c11.6-20.3,36.4,3.6,36.4,3.6l11-30.6c0,0,9.5-7.3-29.3-13.1c-38.8-5.8-26.3-28-26.3-28s3.7-21.6,64.5,13.4
			c0,0-1.1-30.4,62.5-63.8c0,0-61.3-16.4-71-38.3c-9.7-21.9-16.7-42.2-16.7-42.2s-4.5-6.3,14.8-10.3c19.3-3.9,25.7,23.4,25.7,23.4
			s6,20.6,41.2,25.2c0,0,10.4-0.7,28.1,15.6c0,0,14.5,4.7,42.6,1.8l60.9,2.3c0,0,7.9-3.6-22.1-27.2c-30-23.6,7.5-33.3,7.5-33.3
			s8.1-10.8,24.9,15.6c16.8,26.4,30.3,45.5,59.6,40.3c12.5-2.2,39.6-3.3,45.9-3"/>
		<path class="st2" d="M487,5167.8c-1,0.2-10.3-0.1-11.7,0.1l-67.7,8.1l-17.4,72.9c0,0-0.6,9.7-20.4,7.6c0,0-9.6,0.4-5.9-16l-21-1.7
			c0,0-15.9-4.4-3.2-19.4c0,0,1.1-3.6,20.8-3.7c0,0,13.5,4.5,11.7-9.1l6.4-27.7l-33.9-1.7c0,0-49.6,13.6-58.1,39.7
			c-8.5,26.1-20.5,68.5-20.5,68.5s-1.9,26.8-27.7,15c0,0-10.1,0.6,1.3-26.6l-11.4-7.3c0,0-17.1-3.5-8.4-18.6
			c8.7-15.1,27.1,2.6,27.1,2.6l8.2-22.8c0,0,7.1-5.4-21.8-9.7c-28.9-4.3-19.6-20.8-19.6-20.8s2.8-16.1,48,9.9
			c0,0-0.8-22.6,46.5-47.5c0,0-45.7-12.2-52.9-28.5c-7.2-16.3-12.4-31.4-12.4-31.4s-3.3-4.7,11-7.6c14.3-2.9,19.1,17.5,19.1,17.5
			s4.5,15.4,30.7,18.7c0,0,7.7-0.5,20.9,11.6c0,0,10.8,3.5,31.7,1.3l45.3,1.7c0,0,5.9-2.7-16.5-20.3c-22.3-17.6,5.6-24.8,5.6-24.8
			s6-8,18.5,11.6c12.5,19.6,22.5,33.9,44.3,30c9.3-1.6,29.5-2.4,34.2-2.2"/>
		<path class="st2" d="M1158.7,5279.4c0,0,6.8,51.8,51.4,91.4c44.6,39.6,203.8,147.1,203.8,147.1s20.3,11.2-17.5,17.9
			c-37.8,6.6-189.4-54.6-217.5-166.3c0,0-18-35.8-59-50c0,0-0.3-4.3,13.1-3.4c13.4,0.9,11.2,1.9,11.2,1.9s5.6,2.7,7.8-15.3
			C1154,5284.7,1155.1,5276.2,1158.7,5279.4z"/>
		<path class="st2" d="M1211.6,5222.7c0,0-1.3,18,11.7,36.8c13,18.8,61.7,74.8,61.7,74.8s6.4,6.3-7.5,3.6
			c-13.9-2.7-63.1-42.3-65.2-82.8c0,0-3.8-14.1-17.3-24.1c0,0,0.2-1.5,4.9,0.6c4.7,2,3.8,2.1,3.8,2.1s1.8,1.6,3.8-4.1
			C1209.5,5223.8,1210.5,5221.2,1211.6,5222.7z"/>
		<path class="st2" d="M1313,5272c0,0,6.8,22.8,29.7,37.5c22.9,14.6,102.3,51.6,102.3,51.6s10,3.6-6.6,9.3
			c-16.6,5.7-89.2-11-109.9-59.3c0,0-10.7-14.8-30.1-18.3c0,0-0.5-1.9,5.6-2.5c6.1-0.5,5.2,0.1,5.2,0.1s2.7,0.8,2.4-7.5
			C1311.3,5274.7,1311.1,5270.8,1313,5272z"/>
		<path class="st2" d="M1018.3,5124.9c0,0,73.1,101.8,106.3,104.3c0,0,18.9-70.5-99.5-115.6c0,0-48.4-30.9-46.4-23.1
			c0,0,10.1,11.8,9.6,21.1c0,0,0.4,5.1-11,7.1C965.8,5120.7,1018.3,5124.9,1018.3,5124.9z"/>
		<path class="st2" d="M763,4495.9c0,0,6.8,51.8,51.4,91.4c44.6,39.6,203.8,147.1,203.8,147.1s20.3,11.2-17.5,17.9
			c-37.8,6.6-189.4-54.6-217.5-166.3c0,0-18-35.8-59-50c0,0-0.3-4.3,13.1-3.4c13.4,0.9,11.2,1.9,11.2,1.9s5.6,2.7,7.8-15.3
			C758.3,4501.2,759.4,4492.7,763,4495.9z"/>
		<path class="st2" d="M815.9,4439.2c0,0-1.3,18,11.7,36.8c13,18.8,61.7,74.8,61.7,74.8s6.4,6.3-7.5,3.6
			c-13.9-2.7-63.1-42.3-65.2-82.8c0,0-3.8-14.1-17.3-24.1c0,0,0.2-1.5,4.9,0.6c4.7,2,3.8,2.1,3.8,2.1s1.8,1.6,3.8-4.1
			C813.8,4440.3,814.8,4437.6,815.9,4439.2z"/>
		<path class="st3" d="M917.3,4488.5c0,0,6.8,22.8,29.7,37.5c22.9,14.6,102.3,51.6,102.3,51.6s10,3.6-6.6,9.3
			c-16.6,5.7-89.2-11-109.9-59.3c0,0-10.7-14.8-30.1-18.3c0,0-0.5-1.9,5.6-2.5c6.1-0.5,5.2,0.1,5.2,0.1s2.7,0.8,2.4-7.5
			C915.6,4491.2,915.4,4487.3,917.3,4488.5z"/>
		<path class="st3" d="M622.6,4341.4c0,0,73.1,101.8,106.3,104.3c0,0,18.9-70.5-99.5-115.6c0,0-48.4-30.9-46.4-23.1
			c0,0,10.1,11.8,9.6,21.1c0,0,0.4,5.1-11,7.1C570.1,4337.1,622.6,4341.4,622.6,4341.4z"/>
		<g>
			<g>
				<path class="st2" d="M1816.6,5116c0,0,3.5,154.8,18.9,175.2c15.4,20.4-27.7,11.5-27.7,11.5S1808.2,5121,1816.6,5116z"/>
				<g>
					<path class="st2" d="M1547.1,5347.2c-0.4,0-0.8-0.4-0.8-0.8c1.1-10.7,13.3-123.8,44-137.8c32.3-14.7-17,138.6-17,138.6H1547.1z
						"/>
					<path class="st2" d="M1769.8,5073.3l-23.9-4.7c-1.1,0-11.1-2.2-12.9,1.5c-9.1,6.5-14.5-7.9-20.5-12.5l-12.8-9.8
						c-5.8-7.6-18.3,2.5-24.1-5.1c-9.7-12.8-12.6-43.2-22.3-56c-2.2-0.6-4-0.4-5.3,0c-12,3.8-10.9,34.9-10.9,34.9
						c-19.1,3.8-7.4,39.9-7.4,39.9l-15.1,15.5c-4,4.1-5.8,9.8-4.8,15.4c1.2,7-2.4,11.9-6.1,14.9c-4.4,3.6-6.9,9.1-7.3,14.7
						l-7.2,103.4l-39.2,121.7h257.5c2.9-89.2-18.7-157.4-15.8-246.7C1782.2,5099.4,1779.3,5074.5,1769.8,5073.3"/>
					<path class="st2" d="M1550,5347.2c-9.8-0.1,2.1-13.6,7.4-23c13.2-23.5,42.8-64.9,76.3-70.3c0,0,60.1-7.7,9.6-213.6
						c-0.1-0.6-0.2-1.2-0.3-1.8c-1-8.9-7.9-80.2,24.2-39.8c0.8,1,1.4,2,1.9,3.2c1.4,3.3,4,10.8,3.6,19.5c-0.3,5.5,2.9,10.7,7.8,13
						c8.8,4.2,22.3,13.2,35.1,32.4c3.5,5.2,10.9,20.1,16.8,18.1c11.8-4,31.1-20.1,48.2-6.6c2,1.6,4.4,2.5,6.8,2.8l18.1,2
						c7.4,0.8,12.8,7.4,12.3,14.9c-2.7,38.2-9.2,146.9,0.8,178.1c0.2,0.7,0.5,1.3,0.8,1.9c2.1,4.4,11.3,19.5,39.4,28.7
						c0,0,13,4.1,12.8,26.9c-0.1,7.6-6.4,13.8-13.9,13.7H1550z"/>
					<path class="st2" d="M1630.5,5063.5c1.7,29.1-11.4,110.6-7,153.3c0.4,4.2-4.3,5.9-5.7,2c-5.1-14.2-9.4-37.8-5.2-74.8
						c0-0.1,0-0.1,0-0.1c0.1-1.7-0.2-24.3-3-47.5c-1.4-11.6,2.6-16.8,3.7-18.1l13.6-13.9C1628.9,5062.2,1630.2,5059.1,1630.5,5063.5
						z"/>
					<path class="st2" d="M1818,5276c0,0,26.8,25.8,42.5,30.6c19,5.7,12.4,40.6,12.4,40.6h-325.4c-0.7,0-1.4-0.4-1.6-1.2
						c-0.4-2.2,1.3-5.5,3.4-6c33.5-8.8,107.8-27.7,112.2-52.7c0,0-2.6-9.2,35.9-16.4c0,0,5.3-4.7,0-12.8c0,0-1.7-7,18.8-15.1
						c0,0,5.5-43.1,35.2-55.7c0,0,8.4-6.8,0,55.7c0,0,17.4,15.6,15.4-0.7c-2-16.3,8.1-40.9,8.1-40.9s4.7-5.6,0-29.6
						c0,0-2.3-10.4,18.2-20.6c0,0,7.2-4.9,0-29c0,0,0.7-18.6,24-24.4C1817.2,5098,1806.6,5251.2,1818,5276z"/>
				</g>
			</g>
		</g>
	</g>
</g>
<g id="正確格線" class="st5">
</g>
</svg>
