<?xml version="1.0" encoding="utf-8"?>
<!-- Generator: Adobe Illustrator 16.0.0, SVG Export Plug-In . SVG Version: 6.00 Build 0)  -->
<!DOCTYPE svg PUBLIC "-//W3C//DTD SVG 1.1//EN" "http://www.w3.org/Graphics/SVG/1.1/DTD/svg11.dtd">
<svg version="1.1" id="圖層_1" xmlns="http://www.w3.org/2000/svg" xmlns:xlink="http://www.w3.org/1999/xlink" x="0px" y="0px"
	 width="217.238px" height="211.204px" viewBox="0 0 217.238 211.204" enable-background="new 0 0 217.238 211.204"
	 xml:space="preserve">
<g>
	<path fill="#1C72B2" d="M207.311,106.166c0,55.359-44.88,100.242-100.243,100.242c-55.362,0-100.248-44.883-100.248-100.242
		C6.819,50.8,51.706,5.923,107.067,5.923C162.431,5.923,207.311,50.8,207.311,106.166"/>
	<path fill-rule="evenodd" clip-rule="evenodd" fill="#FFFFFF" d="M97.851,90.351c-10.908-7.337-13.847-13.127-11.253-21.235
		c2.109-6.594,9.007-11.477,15.986-11.321c7.373,0.165,14.125,5.299,15.677,12.384c1.963,8.957-1.285,14.089-11.709,20.171
		c1.963,0,3.93,0.024,5.893-0.008c5.481-0.083,10.901-0.214,15.879,2.9c0.96,0.601,3.177,0.018,4.361-0.729
		c3.015-1.909,4.515-5.042,5.199-8.443c0.816-4.057,1.424-8.155,2.025-12.255c0.527-3.597,1.84-6.534,5.902-7.55
		c-3.244-8.583-6.426-17.006-9.846-26.054c14.574,2.084,28.64,4.099,42.705,6.112c0.051,0.169,0.104,0.341,0.157,0.514
		c-11.26,4.002-22.519,8.005-33.949,12.069c0.82,2.237,1.475,4.297,2.357,6.261c0.284,0.628,1.103,1.163,1.796,1.439
		c3.645,1.446,5.1,2.992,4.688,6.756c-0.69,6.3,0.582,12.085,3.282,17.7c0.338,0.701,0.205,1.631,0.292,2.456
		c-0.33,0.051-0.661,0.108-0.99,0.164c-1.06-2.677-2.116-5.354-2.892-7.314c-2.479,4.756-4.803,10.047-7.869,14.865
		c-3.448,5.42-8.916,8.347-15.178,9.434c-3.758,0.647-6.424,2.312-8.123,5.748c-1.377,2.782-3.029,5.424-4.503,8.158
		c-0.947,1.753-2.296,2.571-4.331,2.546c-5.281-0.069-10.565-0.053-15.845-0.009c-2.168,0.022-3.443-0.792-4.118-2.986
		c-2.688-8.716-8.63-14.462-17.043-17.587c-2.384-0.887-2.657-1.951-2.111-4.154c1.621-6.55,5.494-9.791,12.507-10.014
		C90.244,90.264,93.688,90.351,97.851,90.351"/>
	<path fill-rule="evenodd" clip-rule="evenodd" fill="#FFFFFF" d="M179.784,170.808h-67.008c0.354-5.696,0.23-11.28,1.158-16.682
		c1.058-6.178,6.766-10.121,13.532-10.248c4.111-0.077,8.224-0.015,12.458-0.282c-5.826-2.957-10.353-6.97-12.168-13.372
		c-1.106-3.906-0.983-7.82,0.391-11.667c2.894-8.094,10.475-12.952,19.719-12.633c7.99,0.273,15.439,6.215,17.604,14.039
		c2.562,9.265-1.044,16.328-12.54,23.95c1.099,0.056,1.756,0.116,2.412,0.121c3.672,0.021,7.361-0.171,11.017,0.087
		c8.148,0.565,10.583,2.692,12.411,10.771c0.596,2.642,0.805,5.396,0.979,8.113C179.908,165.519,179.784,168.056,179.784,170.808"/>
	<path fill-rule="evenodd" clip-rule="evenodd" fill="#FFFFFF" d="M73.749,144.154c5.578,0,10.363-0.129,15.139,0.035
		c5.281,0.179,8.291,2.608,10.044,7.558c2.194,6.192,1.696,12.562,1.635,19.067H34.478c0-5.197-0.458-10.295,0.112-15.276
		c0.8-7.007,6.509-11.522,13.791-11.66c4.093-0.077,8.19-0.015,12.413-0.319c-5.785-2.894-10.115-6.932-12.045-13.154
		c-1.184-3.82-1.062-7.604,0.205-11.382c2.734-8.157,10.02-13.171,19.078-13.1c8.186,0.061,15.766,5.588,18.17,13.248
		C89.176,128.639,86.003,135.24,73.749,144.154"/>
</g>
</svg>
