<?xml version="1.0" encoding="utf-8"?>
<!-- Generator: Adobe Illustrator 16.0.0, SVG Export Plug-In . SVG Version: 6.00 Build 0)  -->
<!DOCTYPE svg PUBLIC "-//W3C//DTD SVG 1.1//EN" "http://www.w3.org/Graphics/SVG/1.1/DTD/svg11.dtd">
<svg version="1.1" id="圖層_1" xmlns="http://www.w3.org/2000/svg" xmlns:xlink="http://www.w3.org/1999/xlink" x="0px" y="0px"
	 width="217.238px" height="211.204px" viewBox="0 0 217.238 211.204" enable-background="new 0 0 217.238 211.204"
	 xml:space="preserve">
<g>
	<path fill="#235679" d="M207.307,106.166c0,55.359-44.879,100.242-100.24,100.242c-55.359,0-100.244-44.883-100.244-100.242
		C6.823,50.8,51.708,5.923,107.067,5.923C162.428,5.923,207.307,50.8,207.307,106.166"/>
	<path fill-rule="evenodd" clip-rule="evenodd" fill="#FFFFFF" d="M100.442,149.936c-6.834,6.834-13.395,13.389-19.957,19.949
		c-1.729,1.728-3.432,3.483-5.191,5.181c-2.465,2.37-5.932,2.404-8.215,0.129c-2.344-2.332-2.312-5.854,0.148-8.333
		c5.797-5.83,11.625-11.635,17.436-17.456c0.416-0.412,0.799-0.851,1.436-1.537c-3.715,0-7.082-0.003-10.449,0
		c-4.945,0-9.893,0.021-14.838,0.002c-3.289-0.015-5.381-2.007-5.387-5.238c-0.027-16.063-0.012-32.122-0.01-48.185
		c0-0.163,0.045-0.327,0.074-0.524c16.025,6.084,28.295,1.732,36.828-13.079c11.396,17.806,36.018,20.854,51.992,6.774v16.471
		c0.898-0.775,1.465-1.242,2.016-1.736c5.432-4.844,10.852-9.704,16.307-14.521c0.496-0.438,1.213-0.63,1.826-0.93
		c0.211,0.645,0.596,1.291,0.598,1.937c0.037,16.225,0.039,32.452,0.01,48.684c-0.002,0.639-0.404,1.281-0.621,1.923
		c-0.613-0.307-1.324-0.506-1.82-0.941c-5.709-5.037-11.385-10.112-17.066-15.179c-0.283-0.247-0.58-0.478-1.047-0.869
		c-0.037,0.663-0.088,1.131-0.088,1.6c-0.006,6.109-0.004,12.224-0.012,18.337c-0.006,3.526-1.93,5.459-5.439,5.467
		c-7.445,0.007-14.893,0.002-22.343,0.002h-2.222c0.611,0.663,0.982,1.094,1.383,1.494c5.652,5.662,11.326,11.311,16.965,16.985
		c1.824,1.841,2.242,4.417,1.193,6.597c-1.043,2.17-3.287,3.632-5.699,3.171c-1.424-0.271-2.959-1.063-3.998-2.082
		c-7.622-7.469-15.131-15.045-22.666-22.601C101.159,150.997,100.842,150.461,100.442,149.936"/>
	<path fill-rule="evenodd" clip-rule="evenodd" fill="#FFFFFF" d="M121.295,35.458c14.883,0.101,26.877,12.217,26.766,27.047
		c-0.111,14.68-12.316,26.649-27.1,26.578c-14.598-0.067-26.617-12.372-26.535-27.162C94.499,47.468,106.795,35.355,121.295,35.458"
		/>
	<path fill-rule="evenodd" clip-rule="evenodd" fill="#FFFFFF" d="M49.047,70.212c0.012-10.309,8.469-18.738,18.799-18.733
		c10.305,0.004,18.84,8.518,18.801,18.76c-0.039,10.4-8.514,18.847-18.91,18.847C57.493,89.085,49.036,80.546,49.047,70.212"/>
</g>
</svg>
