<?xml version="1.0" encoding="utf-8"?>
<!-- Generator: Adobe Illustrator 16.0.0, SVG Export Plug-In . SVG Version: 6.00 Build 0)  -->
<!DOCTYPE svg PUBLIC "-//W3C//DTD SVG 1.1//EN" "http://www.w3.org/Graphics/SVG/1.1/DTD/svg11.dtd">
<svg version="1.1" id="圖層_1" xmlns="http://www.w3.org/2000/svg" xmlns:xlink="http://www.w3.org/1999/xlink" x="0px" y="0px"
	 width="217.238px" height="211.204px" viewBox="0 0 217.238 211.204" enable-background="new 0 0 217.238 211.204"
	 xml:space="preserve">
<g>
	<path fill="#1DA9B6" d="M207.307,106.167c0,55.361-44.88,100.241-100.242,100.241c-55.362,0-100.243-44.88-100.243-100.241
		c0-55.364,44.881-100.244,100.243-100.244C162.427,5.923,207.307,50.803,207.307,106.167"/>
	<path fill-rule="evenodd" clip-rule="evenodd" fill="#FFFFFF" d="M55.926,96.454c0-2.875-0.03-5.399,0.008-7.924
		c0.112-7.676,5.371-13.951,12.971-14.549c6.023-0.477,12.147-0.402,18.179,0.07c6.956,0.54,12.306,6.933,12.348,13.897
		c0.017,2.705,0.006,5.415,0.006,8.315h15.802c0-2.389-0.004-4.725,0-7.059c0.016-8.628,5.264-14.773,13.877-15.4
		c5.674-0.414,11.436-0.261,17.11,0.211c6.942,0.575,12.379,6.862,12.535,13.809c0.062,2.787,0.009,5.578,0.009,8.629
		c3.706,0,7.129-0.014,10.551,0.003c6.562,0.027,10.074,3.519,10.077,10.041c0.009,20.235,0.005,40.465,0.005,60.696v2.578h-6.451
		v-2.879c0-19.779,0-39.561-0.002-59.338c0-3.88-0.299-4.187-4.184-4.187c-22.138-0.002-44.273,0-66.412-0.002h-2.92
		c0,4.854-0.075,9.458,0.023,14.054c0.089,4.104-1.614,7.042-5.433,8.455c-1.577,0.591-1.442,1.579-1.442,2.734
		c0.003,10.34,0.009,20.684,0.005,31.025c-0.005,7.728-2.714,10.415-10.477,10.428c-3.448,0.003-6.898,0.065-10.342-0.013
		c-5.784-0.132-8.79-3.267-8.792-9.054c-0.004-11.43-0.002-22.854-0.002-34.501c-5.878-1.57-7.373-5.866-7.086-11.399
		c0.195-3.783,0.036-7.59,0.036-11.705c-4.318,0-8.46-0.102-12.594,0.044c-1.826,0.062-2.175,1.532-2.169,3.161
		c0.035,7.893,0.016,15.785,0.016,23.679v36.472v3.074h-6.45v-2.756c0-20.14-0.005-40.281,0.003-60.422
		c0.002-6.723,3.46-10.172,10.206-10.187C48.471,96.445,52,96.454,55.926,96.454"/>
	<path fill-rule="evenodd" clip-rule="evenodd" fill="#FFFFFF" d="M151.698,57.194c-0.022,7.988-6.688,14.59-14.722,14.575
		c-8.258-0.015-14.704-6.694-14.66-15.188c0.042-7.995,6.703-14.422,14.867-14.338C145.472,42.325,151.722,48.769,151.698,57.194"/>
	<path fill-rule="evenodd" clip-rule="evenodd" fill="#FFFFFF" d="M92.413,56.923c-0.004,8.323-6.552,14.903-14.771,14.85
		c-7.973-0.057-14.653-6.787-14.665-14.78c-0.011-8.253,6.592-14.805,14.864-14.746C86.095,42.305,92.417,48.671,92.413,56.923"/>
</g>
</svg>
